<mxfile host="app.diagrams.net" modified="2023-04-05T04:08:51.163Z" agent="Mozilla/5.0 (Windows NT 10.0; Win64; x64) AppleWebKit/537.36 (KHTML, like Gecko) Chrome/110.0.0.0 Safari/537.36" etag="2eSIFq0zmGAhNZJvBl0N" version="21.1.2" type="device">
  <diagram name="Страница 1" id="3yox5P6LXDv1PHqHLUEU">
    <mxGraphModel dx="1981" dy="1696" grid="1" gridSize="10" guides="1" tooltips="1" connect="1" arrows="1" fold="1" page="1" pageScale="1" pageWidth="827" pageHeight="1169" math="0" shadow="0">
      <root>
        <mxCell id="0" />
        <mxCell id="1" parent="0" />
        <mxCell id="T4KWbT7_Ba4ez9RTvERk-1" value="Преподаватель" style="swimlane;fontStyle=0;childLayout=stackLayout;horizontal=1;startSize=26;horizontalStack=0;resizeParent=1;resizeParentMax=0;resizeLast=0;collapsible=1;marginBottom=0;align=left;fontSize=14;" parent="1" vertex="1">
          <mxGeometry x="-60" y="125" width="160" height="266" as="geometry" />
        </mxCell>
        <mxCell id="T4KWbT7_Ba4ez9RTvERk-2" value="Код преподаватель (PK)" style="text;strokeColor=none;fillColor=none;spacingLeft=4;spacingRight=4;overflow=hidden;rotatable=0;points=[[0,0.5],[1,0.5]];portConstraint=eastwest;fontSize=12;fontStyle=0" parent="T4KWbT7_Ba4ez9RTvERk-1" vertex="1">
          <mxGeometry y="26" width="160" height="30" as="geometry" />
        </mxCell>
        <mxCell id="T4KWbT7_Ba4ez9RTvERk-3" value="Имя" style="text;strokeColor=none;fillColor=none;spacingLeft=4;spacingRight=4;overflow=hidden;rotatable=0;points=[[0,0.5],[1,0.5]];portConstraint=eastwest;fontSize=12;" parent="T4KWbT7_Ba4ez9RTvERk-1" vertex="1">
          <mxGeometry y="56" width="160" height="30" as="geometry" />
        </mxCell>
        <mxCell id="T4KWbT7_Ba4ez9RTvERk-4" value="Фамилия" style="text;strokeColor=none;fillColor=none;spacingLeft=4;spacingRight=4;overflow=hidden;rotatable=0;points=[[0,0.5],[1,0.5]];portConstraint=eastwest;fontSize=12;" parent="T4KWbT7_Ba4ez9RTvERk-1" vertex="1">
          <mxGeometry y="86" width="160" height="30" as="geometry" />
        </mxCell>
        <mxCell id="T4KWbT7_Ba4ez9RTvERk-5" value="Отчество" style="text;strokeColor=none;fillColor=none;spacingLeft=4;spacingRight=4;overflow=hidden;rotatable=0;points=[[0,0.5],[1,0.5]];portConstraint=eastwest;fontSize=12;" parent="T4KWbT7_Ba4ez9RTvERk-1" vertex="1">
          <mxGeometry y="116" width="160" height="30" as="geometry" />
        </mxCell>
        <mxCell id="T4KWbT7_Ba4ez9RTvERk-29" value="Логин" style="text;strokeColor=none;fillColor=none;spacingLeft=4;spacingRight=4;overflow=hidden;rotatable=0;points=[[0,0.5],[1,0.5]];portConstraint=eastwest;fontSize=12;" parent="T4KWbT7_Ba4ez9RTvERk-1" vertex="1">
          <mxGeometry y="146" width="160" height="30" as="geometry" />
        </mxCell>
        <mxCell id="T4KWbT7_Ba4ez9RTvERk-30" value="Пароль" style="text;strokeColor=none;fillColor=none;spacingLeft=4;spacingRight=4;overflow=hidden;rotatable=0;points=[[0,0.5],[1,0.5]];portConstraint=eastwest;fontSize=12;" parent="T4KWbT7_Ba4ez9RTvERk-1" vertex="1">
          <mxGeometry y="176" width="160" height="30" as="geometry" />
        </mxCell>
        <mxCell id="T4KWbT7_Ba4ez9RTvERk-6" value="Контактные данные (FK)" style="text;strokeColor=none;fillColor=none;spacingLeft=4;spacingRight=4;overflow=hidden;rotatable=0;points=[[0,0.5],[1,0.5]];portConstraint=eastwest;fontSize=12;" parent="T4KWbT7_Ba4ez9RTvERk-1" vertex="1">
          <mxGeometry y="206" width="160" height="30" as="geometry" />
        </mxCell>
        <mxCell id="T4KWbT7_Ba4ez9RTvERk-94" value="Кафедра" style="text;strokeColor=none;fillColor=none;spacingLeft=4;spacingRight=4;overflow=hidden;rotatable=0;points=[[0,0.5],[1,0.5]];portConstraint=eastwest;fontSize=12;" parent="T4KWbT7_Ba4ez9RTvERk-1" vertex="1">
          <mxGeometry y="236" width="160" height="30" as="geometry" />
        </mxCell>
        <mxCell id="T4KWbT7_Ba4ez9RTvERk-7" value="Пара" style="swimlane;fontStyle=0;childLayout=stackLayout;horizontal=1;startSize=26;horizontalStack=0;resizeParent=1;resizeParentMax=0;resizeLast=0;collapsible=1;marginBottom=0;align=left;fontSize=14;" parent="1" vertex="1">
          <mxGeometry x="-110" y="-175" width="220" height="176" as="geometry" />
        </mxCell>
        <mxCell id="T4KWbT7_Ba4ez9RTvERk-8" value="Код пары (PK)" style="text;strokeColor=none;fillColor=none;spacingLeft=4;spacingRight=4;overflow=hidden;rotatable=0;points=[[0,0.5],[1,0.5]];portConstraint=eastwest;fontSize=12;fontStyle=0" parent="T4KWbT7_Ba4ez9RTvERk-7" vertex="1">
          <mxGeometry y="26" width="220" height="30" as="geometry" />
        </mxCell>
        <mxCell id="T4KWbT7_Ba4ez9RTvERk-9" value="Наименование" style="text;strokeColor=none;fillColor=none;spacingLeft=4;spacingRight=4;overflow=hidden;rotatable=0;points=[[0,0.5],[1,0.5]];portConstraint=eastwest;fontSize=12;" parent="T4KWbT7_Ba4ez9RTvERk-7" vertex="1">
          <mxGeometry y="56" width="220" height="30" as="geometry" />
        </mxCell>
        <mxCell id="T4KWbT7_Ba4ez9RTvERk-10" value="Сокращенное наименование" style="text;strokeColor=none;fillColor=none;spacingLeft=4;spacingRight=4;overflow=hidden;rotatable=0;points=[[0,0.5],[1,0.5]];portConstraint=eastwest;fontSize=12;" parent="T4KWbT7_Ba4ez9RTvERk-7" vertex="1">
          <mxGeometry y="86" width="220" height="30" as="geometry" />
        </mxCell>
        <mxCell id="T4KWbT7_Ba4ez9RTvERk-11" value="Количество часов практик в семестр" style="text;strokeColor=none;fillColor=none;spacingLeft=4;spacingRight=4;overflow=hidden;rotatable=0;points=[[0,0.5],[1,0.5]];portConstraint=eastwest;fontSize=12;" parent="T4KWbT7_Ba4ez9RTvERk-7" vertex="1">
          <mxGeometry y="116" width="220" height="30" as="geometry" />
        </mxCell>
        <mxCell id="T4KWbT7_Ba4ez9RTvERk-12" value="Количество часов лекций в семестр" style="text;strokeColor=none;fillColor=none;spacingLeft=4;spacingRight=4;overflow=hidden;rotatable=0;points=[[0,0.5],[1,0.5]];portConstraint=eastwest;fontSize=12;" parent="T4KWbT7_Ba4ez9RTvERk-7" vertex="1">
          <mxGeometry y="146" width="220" height="30" as="geometry" />
        </mxCell>
        <mxCell id="T4KWbT7_Ba4ez9RTvERk-20" value="" style="edgeStyle=entityRelationEdgeStyle;fontSize=12;html=1;endArrow=ERzeroToMany;startArrow=ERmandOne;rounded=0;entryX=-0.002;entryY=0.167;entryDx=0;entryDy=0;entryPerimeter=0;exitX=1;exitY=0.5;exitDx=0;exitDy=0;" parent="1" source="T4KWbT7_Ba4ez9RTvERk-6" target="T4KWbT7_Ba4ez9RTvERk-31" edge="1">
          <mxGeometry width="100" height="100" relative="1" as="geometry">
            <mxPoint x="70" y="415" as="sourcePoint" />
            <mxPoint x="177.5999999999999" y="358.41600000000017" as="targetPoint" />
          </mxGeometry>
        </mxCell>
        <mxCell id="T4KWbT7_Ba4ez9RTvERk-23" value="Пользователи" style="swimlane;fontStyle=0;childLayout=stackLayout;horizontal=1;startSize=26;horizontalStack=0;resizeParent=1;resizeParentMax=0;resizeLast=0;collapsible=1;marginBottom=0;align=left;fontSize=14;" parent="1" vertex="1">
          <mxGeometry x="120" y="-505" width="220" height="244" as="geometry" />
        </mxCell>
        <mxCell id="T4KWbT7_Ba4ez9RTvERk-24" value="Уникальный идентификатор (PK)" style="text;strokeColor=none;fillColor=none;spacingLeft=4;spacingRight=4;overflow=hidden;rotatable=0;points=[[0,0.5],[1,0.5]];portConstraint=eastwest;fontSize=12;fontStyle=0" parent="T4KWbT7_Ba4ez9RTvERk-23" vertex="1">
          <mxGeometry y="26" width="220" height="30" as="geometry" />
        </mxCell>
        <mxCell id="xMZ38Z4wrfJ14ddGWh8O-2" value="" style="line;strokeWidth=1;fillColor=none;align=left;verticalAlign=middle;spacingTop=-1;spacingLeft=3;spacingRight=3;rotatable=0;labelPosition=right;points=[];portConstraint=eastwest;strokeColor=inherit;" parent="T4KWbT7_Ba4ez9RTvERk-23" vertex="1">
          <mxGeometry y="56" width="220" height="8" as="geometry" />
        </mxCell>
        <mxCell id="T4KWbT7_Ba4ez9RTvERk-25" value="Имя" style="text;strokeColor=none;fillColor=none;spacingLeft=4;spacingRight=4;overflow=hidden;rotatable=0;points=[[0,0.5],[1,0.5]];portConstraint=eastwest;fontSize=12;" parent="T4KWbT7_Ba4ez9RTvERk-23" vertex="1">
          <mxGeometry y="64" width="220" height="30" as="geometry" />
        </mxCell>
        <mxCell id="T4KWbT7_Ba4ez9RTvERk-26" value="Фамилия" style="text;strokeColor=none;fillColor=none;spacingLeft=4;spacingRight=4;overflow=hidden;rotatable=0;points=[[0,0.5],[1,0.5]];portConstraint=eastwest;fontSize=12;" parent="T4KWbT7_Ba4ez9RTvERk-23" vertex="1">
          <mxGeometry y="94" width="220" height="30" as="geometry" />
        </mxCell>
        <mxCell id="T4KWbT7_Ba4ez9RTvERk-28" value="Аутентификация в мудл" style="text;strokeColor=none;fillColor=none;spacingLeft=4;spacingRight=4;overflow=hidden;rotatable=0;points=[[0,0.5],[1,0.5]];portConstraint=eastwest;fontSize=12;" parent="T4KWbT7_Ba4ez9RTvERk-23" vertex="1">
          <mxGeometry y="124" width="220" height="30" as="geometry" />
        </mxCell>
        <mxCell id="T4KWbT7_Ba4ez9RTvERk-36" value="Роль пользователя" style="text;strokeColor=none;fillColor=none;spacingLeft=4;spacingRight=4;overflow=hidden;rotatable=0;points=[[0,0.5],[1,0.5]];portConstraint=eastwest;fontSize=12;" parent="T4KWbT7_Ba4ez9RTvERk-23" vertex="1">
          <mxGeometry y="154" width="220" height="30" as="geometry" />
        </mxCell>
        <mxCell id="T4KWbT7_Ba4ez9RTvERk-37" value="Группа" style="text;strokeColor=none;fillColor=none;spacingLeft=4;spacingRight=4;overflow=hidden;rotatable=0;points=[[0,0.5],[1,0.5]];portConstraint=eastwest;fontSize=12;" parent="T4KWbT7_Ba4ez9RTvERk-23" vertex="1">
          <mxGeometry y="184" width="220" height="30" as="geometry" />
        </mxCell>
        <mxCell id="T4KWbT7_Ba4ez9RTvERk-103" value="Локальные изменения пользователя" style="text;strokeColor=none;fillColor=none;spacingLeft=4;spacingRight=4;overflow=hidden;rotatable=0;points=[[0,0.5],[1,0.5]];portConstraint=eastwest;fontSize=12;" parent="T4KWbT7_Ba4ez9RTvERk-23" vertex="1">
          <mxGeometry y="214" width="220" height="30" as="geometry" />
        </mxCell>
        <mxCell id="T4KWbT7_Ba4ez9RTvERk-31" value="Контактные данные" style="swimlane;childLayout=stackLayout;horizontal=1;startSize=30;horizontalStack=0;rounded=1;fontSize=14;fontStyle=0;strokeWidth=2;resizeParent=0;resizeLast=1;shadow=0;dashed=0;align=left;" parent="1" vertex="1">
          <mxGeometry x="200" y="271" width="160" height="120" as="geometry" />
        </mxCell>
        <mxCell id="T4KWbT7_Ba4ez9RTvERk-32" value="Код преподаватель&#xa;Контактные данные" style="align=left;strokeColor=none;fillColor=none;spacingLeft=4;fontSize=12;verticalAlign=top;resizable=0;rotatable=0;part=1;" parent="T4KWbT7_Ba4ez9RTvERk-31" vertex="1">
          <mxGeometry y="30" width="160" height="90" as="geometry" />
        </mxCell>
        <mxCell id="T4KWbT7_Ba4ez9RTvERk-33" value="Аутентификация в мудл" style="swimlane;childLayout=stackLayout;horizontal=1;startSize=30;horizontalStack=0;rounded=1;fontSize=14;fontStyle=0;strokeWidth=2;resizeParent=0;resizeLast=1;shadow=0;dashed=0;align=left;" parent="1" vertex="1">
          <mxGeometry x="440" y="-447" width="160" height="120" as="geometry" />
        </mxCell>
        <mxCell id="T4KWbT7_Ba4ez9RTvERk-34" value="Логин от мудл&#xa;Пароль от мудл" style="align=left;strokeColor=none;fillColor=none;spacingLeft=4;fontSize=12;verticalAlign=top;resizable=0;rotatable=0;part=1;" parent="T4KWbT7_Ba4ez9RTvERk-33" vertex="1">
          <mxGeometry y="30" width="160" height="90" as="geometry" />
        </mxCell>
        <mxCell id="T4KWbT7_Ba4ez9RTvERk-35" value="" style="edgeStyle=entityRelationEdgeStyle;fontSize=12;html=1;endArrow=ERzeroToMany;startArrow=ERmandOne;rounded=0;entryX=-0.009;entryY=0.183;entryDx=0;entryDy=0;entryPerimeter=0;exitX=1;exitY=0.5;exitDx=0;exitDy=0;" parent="1" source="T4KWbT7_Ba4ez9RTvERk-28" target="T4KWbT7_Ba4ez9RTvERk-33" edge="1">
          <mxGeometry width="100" height="100" relative="1" as="geometry">
            <mxPoint x="370" y="-455" as="sourcePoint" />
            <mxPoint x="449.68000000000006" y="-435.96000000000004" as="targetPoint" />
          </mxGeometry>
        </mxCell>
        <mxCell id="T4KWbT7_Ba4ez9RTvERk-52" value="Группа преподавателей" style="swimlane;childLayout=stackLayout;horizontal=1;startSize=30;horizontalStack=0;rounded=1;fontSize=14;fontStyle=0;strokeWidth=2;resizeParent=0;resizeLast=1;shadow=0;dashed=0;align=left;" parent="1" vertex="1">
          <mxGeometry x="430" y="68" width="160" height="120" as="geometry">
            <mxRectangle x="930" y="-40" width="170" height="30" as="alternateBounds" />
          </mxGeometry>
        </mxCell>
        <mxCell id="T4KWbT7_Ba4ez9RTvERk-53" value="Код группа&#xa;Код преподаватель (FK)" style="align=left;strokeColor=none;fillColor=none;spacingLeft=4;fontSize=12;verticalAlign=top;resizable=0;rotatable=0;part=1;" parent="T4KWbT7_Ba4ez9RTvERk-52" vertex="1">
          <mxGeometry y="30" width="160" height="90" as="geometry" />
        </mxCell>
        <mxCell id="T4KWbT7_Ba4ez9RTvERk-54" value="Назначение пары" style="swimlane;fontStyle=0;childLayout=stackLayout;horizontal=1;startSize=26;horizontalStack=0;resizeParent=1;resizeParentMax=0;resizeLast=0;collapsible=1;marginBottom=0;align=left;fontSize=14;" parent="1" vertex="1">
          <mxGeometry x="770" y="-35" width="220" height="326" as="geometry">
            <mxRectangle x="780" y="10" width="70" height="30" as="alternateBounds" />
          </mxGeometry>
        </mxCell>
        <mxCell id="T4KWbT7_Ba4ez9RTvERk-55" value="Уникальный идентификатор (PK)" style="text;strokeColor=none;fillColor=none;spacingLeft=4;spacingRight=4;overflow=hidden;rotatable=0;points=[[0,0.5],[1,0.5]];portConstraint=eastwest;fontSize=12;" parent="T4KWbT7_Ba4ez9RTvERk-54" vertex="1">
          <mxGeometry y="26" width="220" height="30" as="geometry" />
        </mxCell>
        <mxCell id="T4KWbT7_Ba4ez9RTvERk-57" value="Пара (FK)" style="text;strokeColor=none;fillColor=none;spacingLeft=4;spacingRight=4;overflow=hidden;rotatable=0;points=[[0,0.5],[1,0.5]];portConstraint=eastwest;fontSize=12;" parent="T4KWbT7_Ba4ez9RTvERk-54" vertex="1">
          <mxGeometry y="56" width="220" height="30" as="geometry" />
        </mxCell>
        <mxCell id="T4KWbT7_Ba4ez9RTvERk-73" value="Тип пары" style="text;strokeColor=none;fillColor=none;spacingLeft=4;spacingRight=4;overflow=hidden;rotatable=0;points=[[0,0.5],[1,0.5]];portConstraint=eastwest;fontSize=12;" parent="T4KWbT7_Ba4ez9RTvERk-54" vertex="1">
          <mxGeometry y="86" width="220" height="30" as="geometry" />
        </mxCell>
        <mxCell id="T4KWbT7_Ba4ez9RTvERk-56" value="Код группа преподавателей (FK)" style="text;strokeColor=none;fillColor=none;spacingLeft=4;spacingRight=4;overflow=hidden;rotatable=0;points=[[0,0.5],[1,0.5]];portConstraint=eastwest;fontSize=12;fontStyle=0" parent="T4KWbT7_Ba4ez9RTvERk-54" vertex="1">
          <mxGeometry y="116" width="220" height="30" as="geometry" />
        </mxCell>
        <mxCell id="T4KWbT7_Ba4ez9RTvERk-58" value="Неделя" style="text;strokeColor=none;fillColor=none;spacingLeft=4;spacingRight=4;overflow=hidden;rotatable=0;points=[[0,0.5],[1,0.5]];portConstraint=eastwest;fontSize=12;" parent="T4KWbT7_Ba4ez9RTvERk-54" vertex="1">
          <mxGeometry y="146" width="220" height="30" as="geometry" />
        </mxCell>
        <mxCell id="T4KWbT7_Ba4ez9RTvERk-71" value="День недели" style="text;strokeColor=none;fillColor=none;spacingLeft=4;spacingRight=4;overflow=hidden;rotatable=0;points=[[0,0.5],[1,0.5]];portConstraint=eastwest;fontSize=12;" parent="T4KWbT7_Ba4ez9RTvERk-54" vertex="1">
          <mxGeometry y="176" width="220" height="30" as="geometry" />
        </mxCell>
        <mxCell id="T4KWbT7_Ba4ez9RTvERk-59" value="Номер пары" style="text;strokeColor=none;fillColor=none;spacingLeft=4;spacingRight=4;overflow=hidden;rotatable=0;points=[[0,0.5],[1,0.5]];portConstraint=eastwest;fontSize=12;" parent="T4KWbT7_Ba4ez9RTvERk-54" vertex="1">
          <mxGeometry y="206" width="220" height="30" as="geometry" />
        </mxCell>
        <mxCell id="T4KWbT7_Ba4ez9RTvERk-85" value="Кабинет (FK)" style="text;strokeColor=none;fillColor=none;spacingLeft=4;spacingRight=4;overflow=hidden;rotatable=0;points=[[0,0.5],[1,0.5]];portConstraint=eastwest;fontSize=12;" parent="T4KWbT7_Ba4ez9RTvERk-54" vertex="1">
          <mxGeometry y="236" width="220" height="30" as="geometry" />
        </mxCell>
        <mxCell id="T4KWbT7_Ba4ez9RTvERk-72" value="Группа" style="text;strokeColor=none;fillColor=none;spacingLeft=4;spacingRight=4;overflow=hidden;rotatable=0;points=[[0,0.5],[1,0.5]];portConstraint=eastwest;fontSize=12;" parent="T4KWbT7_Ba4ez9RTvERk-54" vertex="1">
          <mxGeometry y="266" width="220" height="30" as="geometry" />
        </mxCell>
        <mxCell id="T4KWbT7_Ba4ez9RTvERk-117" value="Ссылка на курс в мудл" style="text;strokeColor=none;fillColor=none;spacingLeft=4;spacingRight=4;overflow=hidden;rotatable=0;points=[[0,0.5],[1,0.5]];portConstraint=eastwest;fontSize=12;" parent="T4KWbT7_Ba4ez9RTvERk-54" vertex="1">
          <mxGeometry y="296" width="220" height="30" as="geometry" />
        </mxCell>
        <mxCell id="T4KWbT7_Ba4ez9RTvERk-63" value="Пары которые &#xa;преподает" style="swimlane;childLayout=stackLayout;horizontal=1;startSize=40;horizontalStack=0;rounded=1;fontSize=14;fontStyle=0;strokeWidth=2;resizeParent=0;resizeLast=1;shadow=0;dashed=0;align=left;" parent="1" vertex="1">
          <mxGeometry x="200" y="-35" width="160" height="120" as="geometry" />
        </mxCell>
        <mxCell id="T4KWbT7_Ba4ez9RTvERk-64" value="Код преподавателя (FK)&#xa;Код пара (FK)" style="align=left;strokeColor=none;fillColor=none;spacingLeft=4;fontSize=12;verticalAlign=top;resizable=0;rotatable=0;part=1;" parent="T4KWbT7_Ba4ez9RTvERk-63" vertex="1">
          <mxGeometry y="40" width="160" height="80" as="geometry" />
        </mxCell>
        <mxCell id="T4KWbT7_Ba4ez9RTvERk-66" value="" style="edgeStyle=entityRelationEdgeStyle;fontSize=12;html=1;endArrow=ERoneToMany;startArrow=ERmandOne;rounded=0;exitX=1;exitY=0.5;exitDx=0;exitDy=0;entryX=0;entryY=0.25;entryDx=0;entryDy=0;" parent="1" source="T4KWbT7_Ba4ez9RTvERk-11" target="T4KWbT7_Ba4ez9RTvERk-63" edge="1">
          <mxGeometry width="100" height="100" relative="1" as="geometry">
            <mxPoint x="390" y="125" as="sourcePoint" />
            <mxPoint x="490" y="25" as="targetPoint" />
          </mxGeometry>
        </mxCell>
        <mxCell id="T4KWbT7_Ba4ez9RTvERk-67" value="" style="edgeStyle=entityRelationEdgeStyle;fontSize=12;html=1;endArrow=ERoneToMany;startArrow=ERmandOne;rounded=0;exitX=1;exitY=0.5;exitDx=0;exitDy=0;entryX=0;entryY=0.5;entryDx=0;entryDy=0;" parent="1" source="T4KWbT7_Ba4ez9RTvERk-2" target="T4KWbT7_Ba4ez9RTvERk-64" edge="1">
          <mxGeometry width="100" height="100" relative="1" as="geometry">
            <mxPoint x="430" y="85.00000000000023" as="sourcePoint" />
            <mxPoint x="510" y="160.00000000000023" as="targetPoint" />
          </mxGeometry>
        </mxCell>
        <mxCell id="T4KWbT7_Ba4ez9RTvERk-68" value="" style="edgeStyle=entityRelationEdgeStyle;fontSize=12;html=1;endArrow=ERoneToMany;startArrow=ERmandOne;rounded=0;exitX=1.005;exitY=0.653;exitDx=0;exitDy=0;entryX=0;entryY=0.5;entryDx=0;entryDy=0;exitPerimeter=0;" parent="1" source="T4KWbT7_Ba4ez9RTvERk-9" target="T4KWbT7_Ba4ez9RTvERk-57" edge="1">
          <mxGeometry width="100" height="100" relative="1" as="geometry">
            <mxPoint x="219.99999999999977" y="-135" as="sourcePoint" />
            <mxPoint x="300" y="-60" as="targetPoint" />
          </mxGeometry>
        </mxCell>
        <mxCell id="T4KWbT7_Ba4ez9RTvERk-69" value="" style="edgeStyle=entityRelationEdgeStyle;fontSize=12;html=1;endArrow=ERoneToMany;startArrow=ERmandOne;rounded=0;exitX=1;exitY=0.5;exitDx=0;exitDy=0;entryX=-0.019;entryY=0.336;entryDx=0;entryDy=0;entryPerimeter=0;" parent="1" source="T4KWbT7_Ba4ez9RTvERk-5" target="T4KWbT7_Ba4ez9RTvERk-53" edge="1">
          <mxGeometry width="100" height="100" relative="1" as="geometry">
            <mxPoint x="269.9999999999998" y="190" as="sourcePoint" />
            <mxPoint x="350" y="265" as="targetPoint" />
          </mxGeometry>
        </mxCell>
        <mxCell id="T4KWbT7_Ba4ez9RTvERk-70" value="" style="edgeStyle=entityRelationEdgeStyle;fontSize=12;html=1;endArrow=ERoneToMany;startArrow=ERmandOne;rounded=0;exitX=1;exitY=0.5;exitDx=0;exitDy=0;entryX=0;entryY=0.5;entryDx=0;entryDy=0;" parent="1" source="T4KWbT7_Ba4ez9RTvERk-52" target="T4KWbT7_Ba4ez9RTvERk-56" edge="1">
          <mxGeometry width="100" height="100" relative="1" as="geometry">
            <mxPoint x="719.9999999999998" y="190" as="sourcePoint" />
            <mxPoint x="810" y="135" as="targetPoint" />
          </mxGeometry>
        </mxCell>
        <mxCell id="T4KWbT7_Ba4ez9RTvERk-84" value="Это и назначение на экзамен&lt;br&gt;Тип пары практика, лекция, экзамен, зачет" style="text;strokeColor=none;align=center;fillColor=none;html=1;verticalAlign=middle;whiteSpace=wrap;rounded=0;" parent="1" vertex="1">
          <mxGeometry x="850" y="325" width="90" height="120" as="geometry" />
        </mxCell>
        <mxCell id="T4KWbT7_Ba4ez9RTvERk-86" value="Кабинет" style="swimlane;fontStyle=0;childLayout=stackLayout;horizontal=1;startSize=26;horizontalStack=0;resizeParent=1;resizeParentMax=0;resizeLast=0;collapsible=1;marginBottom=0;align=left;fontSize=14;" parent="1" vertex="1">
          <mxGeometry x="470" y="275" width="160" height="146" as="geometry" />
        </mxCell>
        <mxCell id="T4KWbT7_Ba4ez9RTvERk-87" value="Номер кабинета (PK)" style="text;strokeColor=none;fillColor=none;spacingLeft=4;spacingRight=4;overflow=hidden;rotatable=0;points=[[0,0.5],[1,0.5]];portConstraint=eastwest;fontSize=12;fontStyle=0" parent="T4KWbT7_Ba4ez9RTvERk-86" vertex="1">
          <mxGeometry y="26" width="160" height="30" as="geometry" />
        </mxCell>
        <mxCell id="T4KWbT7_Ba4ez9RTvERk-88" value="Компьютерный класс" style="text;strokeColor=none;fillColor=none;spacingLeft=4;spacingRight=4;overflow=hidden;rotatable=0;points=[[0,0.5],[1,0.5]];portConstraint=eastwest;fontSize=12;" parent="T4KWbT7_Ba4ez9RTvERk-86" vertex="1">
          <mxGeometry y="56" width="160" height="30" as="geometry" />
        </mxCell>
        <mxCell id="T4KWbT7_Ba4ez9RTvERk-89" value="Электронная доска" style="text;strokeColor=none;fillColor=none;spacingLeft=4;spacingRight=4;overflow=hidden;rotatable=0;points=[[0,0.5],[1,0.5]];portConstraint=eastwest;fontSize=12;" parent="T4KWbT7_Ba4ez9RTvERk-86" vertex="1">
          <mxGeometry y="86" width="160" height="30" as="geometry" />
        </mxCell>
        <mxCell id="T4KWbT7_Ba4ez9RTvERk-95" value="Вместительность" style="text;strokeColor=none;fillColor=none;spacingLeft=4;spacingRight=4;overflow=hidden;rotatable=0;points=[[0,0.5],[1,0.5]];portConstraint=eastwest;fontSize=12;" parent="T4KWbT7_Ba4ez9RTvERk-86" vertex="1">
          <mxGeometry y="116" width="160" height="30" as="geometry" />
        </mxCell>
        <mxCell id="T4KWbT7_Ba4ez9RTvERk-96" value="" style="edgeStyle=entityRelationEdgeStyle;fontSize=12;html=1;endArrow=ERoneToMany;startArrow=ERmandOne;rounded=0;exitX=1.012;exitY=0.708;exitDx=0;exitDy=0;entryX=0;entryY=0.5;entryDx=0;entryDy=0;exitPerimeter=0;" parent="1" source="T4KWbT7_Ba4ez9RTvERk-88" target="T4KWbT7_Ba4ez9RTvERk-85" edge="1">
          <mxGeometry width="100" height="100" relative="1" as="geometry">
            <mxPoint x="610" y="261" as="sourcePoint" />
            <mxPoint x="780" y="222.00000000000023" as="targetPoint" />
          </mxGeometry>
        </mxCell>
        <mxCell id="T4KWbT7_Ba4ez9RTvERk-102" value="Реализация этого, можно ли сделать сначала класс хранящий инфу на ДЕНЬи потом обернуть это в другой класс НЕДЕЛЯ" style="text;strokeColor=none;align=center;fillColor=none;html=1;verticalAlign=middle;whiteSpace=wrap;rounded=0;" parent="1" vertex="1">
          <mxGeometry x="640" y="485" width="110" height="140" as="geometry" />
        </mxCell>
        <mxCell id="T4KWbT7_Ba4ez9RTvERk-104" value="Изменения" style="swimlane;childLayout=stackLayout;horizontal=1;startSize=30;horizontalStack=0;rounded=1;fontSize=14;fontStyle=0;strokeWidth=2;resizeParent=0;resizeLast=1;shadow=0;dashed=0;align=left;" parent="1" vertex="1">
          <mxGeometry x="800" y="-329" width="210" height="200" as="geometry" />
        </mxCell>
        <mxCell id="T4KWbT7_Ba4ez9RTvERk-105" value="Пара (FK)&#xa;Тип пары&#xa;Код группа преподавателей (FK)&#xa;Неделя&#xa;День недели&#xa;Номер пары&#xa;Кабинет (FK)&#xa;&#xa;&#xa;&#xa;&#xa;&#xa;&#xa;&#xa;" style="align=left;strokeColor=none;fillColor=none;spacingLeft=4;fontSize=13;verticalAlign=top;resizable=0;rotatable=0;part=1;spacing=5;" parent="T4KWbT7_Ba4ez9RTvERk-104" vertex="1">
          <mxGeometry y="30" width="210" height="170" as="geometry" />
        </mxCell>
        <mxCell id="T4KWbT7_Ba4ez9RTvERk-106" value="" style="edgeStyle=entityRelationEdgeStyle;fontSize=12;html=1;endArrow=ERzeroToMany;startArrow=ERmandOne;rounded=0;entryX=-0.005;entryY=0.038;entryDx=0;entryDy=0;entryPerimeter=0;exitX=1;exitY=0.5;exitDx=0;exitDy=0;" parent="1" source="T4KWbT7_Ba4ez9RTvERk-103" target="T4KWbT7_Ba4ez9RTvERk-105" edge="1">
          <mxGeometry width="100" height="100" relative="1" as="geometry">
            <mxPoint x="480" y="-272" as="sourcePoint" />
            <mxPoint x="589.6800000000001" y="-333.96000000000004" as="targetPoint" />
          </mxGeometry>
        </mxCell>
        <mxCell id="T4KWbT7_Ba4ez9RTvERk-118" value="" style="edgeStyle=entityRelationEdgeStyle;fontSize=12;html=1;endArrow=ERzeroToMany;startArrow=ERmandOne;rounded=0;entryX=0;entryY=0.176;entryDx=0;entryDy=0;entryPerimeter=0;exitX=1;exitY=0.5;exitDx=0;exitDy=0;" parent="1" source="T4KWbT7_Ba4ez9RTvERk-8" target="T4KWbT7_Ba4ez9RTvERk-105" edge="1">
          <mxGeometry width="100" height="100" relative="1" as="geometry">
            <mxPoint x="170" y="-160.46" as="sourcePoint" />
            <mxPoint x="319" y="-135.0000000000002" as="targetPoint" />
          </mxGeometry>
        </mxCell>
        <mxCell id="T4KWbT7_Ba4ez9RTvERk-119" value="" style="edgeStyle=entityRelationEdgeStyle;fontSize=12;html=1;endArrow=ERzeroToMany;startArrow=ERmandOne;rounded=0;exitX=1.007;exitY=0.153;exitDx=0;exitDy=0;exitPerimeter=0;entryX=-0.003;entryY=0.311;entryDx=0;entryDy=0;entryPerimeter=0;" parent="1" source="T4KWbT7_Ba4ez9RTvERk-52" target="T4KWbT7_Ba4ez9RTvERk-105" edge="1">
          <mxGeometry width="100" height="100" relative="1" as="geometry">
            <mxPoint x="145" y="-93.92" as="sourcePoint" />
            <mxPoint x="670" y="-165" as="targetPoint" />
          </mxGeometry>
        </mxCell>
        <mxCell id="T4KWbT7_Ba4ez9RTvERk-120" value="" style="edgeStyle=entityRelationEdgeStyle;fontSize=12;html=1;endArrow=ERzeroToMany;startArrow=ERmandOne;rounded=0;exitX=1.018;exitY=0.104;exitDx=0;exitDy=0;exitPerimeter=0;entryX=-0.009;entryY=0.668;entryDx=0;entryDy=0;entryPerimeter=0;" parent="1" source="T4KWbT7_Ba4ez9RTvERk-86" target="T4KWbT7_Ba4ez9RTvERk-105" edge="1">
          <mxGeometry width="100" height="100" relative="1" as="geometry">
            <mxPoint x="620" y="209.81000000000012" as="sourcePoint" />
            <mxPoint x="724.6800000000003" y="-55.00000000000006" as="targetPoint" />
          </mxGeometry>
        </mxCell>
        <mxCell id="T4KWbT7_Ba4ez9RTvERk-121" value="&lt;font style=&quot;font-size: 15px;&quot;&gt;Это локальная БД&lt;/font&gt;" style="text;strokeColor=none;align=center;fillColor=none;html=1;verticalAlign=middle;whiteSpace=wrap;rounded=0;fontSize=13;" parent="1" vertex="1">
          <mxGeometry x="810" y="-365" width="130" height="30" as="geometry" />
        </mxCell>
        <mxCell id="zYMpkRdm6IUNbibokJmv-2" value="Пользователи" style="swimlane;fontStyle=0;childLayout=stackLayout;horizontal=1;startSize=26;horizontalStack=0;resizeParent=1;resizeParentMax=0;resizeLast=0;collapsible=1;marginBottom=0;align=left;fontSize=14;" parent="1" vertex="1">
          <mxGeometry x="-650" y="-168" width="220" height="236" as="geometry" />
        </mxCell>
        <mxCell id="zYMpkRdm6IUNbibokJmv-3" value="Уникальный идентификатор (PK)" style="text;strokeColor=none;fillColor=none;spacingLeft=4;spacingRight=4;overflow=hidden;rotatable=0;points=[[0,0.5],[1,0.5]];portConstraint=eastwest;fontSize=12;fontStyle=0" parent="zYMpkRdm6IUNbibokJmv-2" vertex="1">
          <mxGeometry y="26" width="220" height="30" as="geometry" />
        </mxCell>
        <mxCell id="zYMpkRdm6IUNbibokJmv-4" value="Имя" style="text;strokeColor=none;fillColor=none;spacingLeft=4;spacingRight=4;overflow=hidden;rotatable=0;points=[[0,0.5],[1,0.5]];portConstraint=eastwest;fontSize=12;" parent="zYMpkRdm6IUNbibokJmv-2" vertex="1">
          <mxGeometry y="56" width="220" height="30" as="geometry" />
        </mxCell>
        <mxCell id="zYMpkRdm6IUNbibokJmv-5" value="Фамилия" style="text;strokeColor=none;fillColor=none;spacingLeft=4;spacingRight=4;overflow=hidden;rotatable=0;points=[[0,0.5],[1,0.5]];portConstraint=eastwest;fontSize=12;" parent="zYMpkRdm6IUNbibokJmv-2" vertex="1">
          <mxGeometry y="86" width="220" height="30" as="geometry" />
        </mxCell>
        <mxCell id="zYMpkRdm6IUNbibokJmv-6" value="Аутентификация в мудл" style="text;strokeColor=none;fillColor=none;spacingLeft=4;spacingRight=4;overflow=hidden;rotatable=0;points=[[0,0.5],[1,0.5]];portConstraint=eastwest;fontSize=12;" parent="zYMpkRdm6IUNbibokJmv-2" vertex="1">
          <mxGeometry y="116" width="220" height="30" as="geometry" />
        </mxCell>
        <mxCell id="zYMpkRdm6IUNbibokJmv-7" value="Роль пользователя" style="text;strokeColor=none;fillColor=none;spacingLeft=4;spacingRight=4;overflow=hidden;rotatable=0;points=[[0,0.5],[1,0.5]];portConstraint=eastwest;fontSize=12;" parent="zYMpkRdm6IUNbibokJmv-2" vertex="1">
          <mxGeometry y="146" width="220" height="30" as="geometry" />
        </mxCell>
        <mxCell id="zYMpkRdm6IUNbibokJmv-8" value="Группа" style="text;strokeColor=none;fillColor=none;spacingLeft=4;spacingRight=4;overflow=hidden;rotatable=0;points=[[0,0.5],[1,0.5]];portConstraint=eastwest;fontSize=12;" parent="zYMpkRdm6IUNbibokJmv-2" vertex="1">
          <mxGeometry y="176" width="220" height="30" as="geometry" />
        </mxCell>
        <mxCell id="zYMpkRdm6IUNbibokJmv-9" value="Локальные изменения пользователя" style="text;strokeColor=none;fillColor=none;spacingLeft=4;spacingRight=4;overflow=hidden;rotatable=0;points=[[0,0.5],[1,0.5]];portConstraint=eastwest;fontSize=12;" parent="zYMpkRdm6IUNbibokJmv-2" vertex="1">
          <mxGeometry y="206" width="220" height="30" as="geometry" />
        </mxCell>
        <mxCell id="zYMpkRdm6IUNbibokJmv-10" value="" style="edgeStyle=entityRelationEdgeStyle;fontSize=12;html=1;endArrow=ERmandOne;startArrow=ERmandOne;rounded=0;" parent="1" edge="1">
          <mxGeometry width="100" height="100" relative="1" as="geometry">
            <mxPoint x="-430" y="-118" as="sourcePoint" />
            <mxPoint x="-330" y="-218" as="targetPoint" />
          </mxGeometry>
        </mxCell>
        <mxCell id="zYMpkRdm6IUNbibokJmv-14" value="Преподаватель" style="swimlane;fontStyle=0;childLayout=stackLayout;horizontal=1;startSize=26;horizontalStack=0;resizeParent=1;resizeParentMax=0;resizeLast=0;collapsible=1;marginBottom=0;align=left;fontSize=14;strokeWidth=3;" parent="1" vertex="1">
          <mxGeometry x="1800" y="-230" width="160" height="216" as="geometry" />
        </mxCell>
        <mxCell id="zYMpkRdm6IUNbibokJmv-15" value="Код преподаватель (PK)" style="text;strokeColor=none;fillColor=none;spacingLeft=4;spacingRight=4;overflow=hidden;rotatable=0;points=[[0,0.5],[1,0.5]];portConstraint=eastwest;fontSize=12;fontStyle=0" parent="zYMpkRdm6IUNbibokJmv-14" vertex="1">
          <mxGeometry y="26" width="160" height="30" as="geometry" />
        </mxCell>
        <mxCell id="e31-4b1JSL8lnOEHuN7n-5" value="" style="line;strokeWidth=1;rotatable=0;dashed=0;labelPosition=right;align=left;verticalAlign=middle;spacingTop=0;spacingLeft=6;points=[];portConstraint=eastwest;" parent="zYMpkRdm6IUNbibokJmv-14" vertex="1">
          <mxGeometry y="56" width="160" height="10" as="geometry" />
        </mxCell>
        <mxCell id="zYMpkRdm6IUNbibokJmv-22" value="Кафедра (FK)" style="text;strokeColor=none;fillColor=none;spacingLeft=4;spacingRight=4;overflow=hidden;rotatable=0;points=[[0,0.5],[1,0.5]];portConstraint=eastwest;fontSize=12;" parent="zYMpkRdm6IUNbibokJmv-14" vertex="1">
          <mxGeometry y="66" width="160" height="30" as="geometry" />
        </mxCell>
        <mxCell id="zYMpkRdm6IUNbibokJmv-16" value="Имя" style="text;strokeColor=none;fillColor=none;spacingLeft=4;spacingRight=4;overflow=hidden;rotatable=0;points=[[0,0.5],[1,0.5]];portConstraint=eastwest;fontSize=12;" parent="zYMpkRdm6IUNbibokJmv-14" vertex="1">
          <mxGeometry y="96" width="160" height="30" as="geometry" />
        </mxCell>
        <mxCell id="zYMpkRdm6IUNbibokJmv-17" value="Фамилия" style="text;strokeColor=none;fillColor=none;spacingLeft=4;spacingRight=4;overflow=hidden;rotatable=0;points=[[0,0.5],[1,0.5]];portConstraint=eastwest;fontSize=12;" parent="zYMpkRdm6IUNbibokJmv-14" vertex="1">
          <mxGeometry y="126" width="160" height="30" as="geometry" />
        </mxCell>
        <mxCell id="zYMpkRdm6IUNbibokJmv-18" value="Отчество" style="text;strokeColor=none;fillColor=none;spacingLeft=4;spacingRight=4;overflow=hidden;rotatable=0;points=[[0,0.5],[1,0.5]];portConstraint=eastwest;fontSize=12;" parent="zYMpkRdm6IUNbibokJmv-14" vertex="1">
          <mxGeometry y="156" width="160" height="30" as="geometry" />
        </mxCell>
        <mxCell id="zYMpkRdm6IUNbibokJmv-21" value="Контактные данные (FK)" style="text;strokeColor=none;fillColor=none;spacingLeft=4;spacingRight=4;overflow=hidden;rotatable=0;points=[[0,0.5],[1,0.5]];portConstraint=eastwest;fontSize=12;" parent="zYMpkRdm6IUNbibokJmv-14" vertex="1">
          <mxGeometry y="186" width="160" height="30" as="geometry" />
        </mxCell>
        <mxCell id="zYMpkRdm6IUNbibokJmv-31" value=" Информация о паре" style="swimlane;fontStyle=0;childLayout=stackLayout;horizontal=1;startSize=26;horizontalStack=0;resizeParent=1;resizeParentMax=0;resizeLast=0;collapsible=1;marginBottom=0;align=left;fontSize=14;rounded=1;strokeWidth=3;" parent="1" vertex="1">
          <mxGeometry x="2590" y="-314" width="220" height="304" as="geometry">
            <mxRectangle x="780" y="10" width="70" height="30" as="alternateBounds" />
          </mxGeometry>
        </mxCell>
        <mxCell id="zYMpkRdm6IUNbibokJmv-32" value="Уникальный идентификатор (PK)" style="text;strokeColor=none;fillColor=none;spacingLeft=4;spacingRight=4;overflow=hidden;rotatable=0;points=[[0,0.5],[1,0.5]];portConstraint=eastwest;fontSize=12;" parent="zYMpkRdm6IUNbibokJmv-31" vertex="1">
          <mxGeometry y="26" width="220" height="30" as="geometry" />
        </mxCell>
        <mxCell id="xMZ38Z4wrfJ14ddGWh8O-3" value="" style="line;strokeWidth=1;fillColor=none;align=left;verticalAlign=middle;spacingTop=-1;spacingLeft=3;spacingRight=3;rotatable=0;labelPosition=right;points=[];portConstraint=eastwest;strokeColor=inherit;" parent="zYMpkRdm6IUNbibokJmv-31" vertex="1">
          <mxGeometry y="56" width="220" height="8" as="geometry" />
        </mxCell>
        <mxCell id="zYMpkRdm6IUNbibokJmv-39" value="Кабинет (FK)" style="text;strokeColor=none;fillColor=none;spacingLeft=4;spacingRight=4;overflow=hidden;rotatable=0;points=[[0,0.5],[1,0.5]];portConstraint=eastwest;fontSize=12;" parent="zYMpkRdm6IUNbibokJmv-31" vertex="1">
          <mxGeometry y="64" width="220" height="30" as="geometry" />
        </mxCell>
        <mxCell id="zYMpkRdm6IUNbibokJmv-33" value="Группа преподавателей (FK)" style="text;strokeColor=none;fillColor=none;spacingLeft=4;spacingRight=4;overflow=hidden;rotatable=0;points=[[0,0.5],[1,0.5]];portConstraint=eastwest;fontSize=12;" parent="zYMpkRdm6IUNbibokJmv-31" vertex="1">
          <mxGeometry y="94" width="220" height="30" as="geometry" />
        </mxCell>
        <mxCell id="rIVRspA-VsXGn7NL0aLw-7" value="Дисциплина (FK)" style="text;strokeColor=none;fillColor=none;spacingLeft=4;spacingRight=4;overflow=hidden;rotatable=0;points=[[0,0.5],[1,0.5]];portConstraint=eastwest;fontSize=12;" parent="zYMpkRdm6IUNbibokJmv-31" vertex="1">
          <mxGeometry y="124" width="220" height="30" as="geometry" />
        </mxCell>
        <mxCell id="zYMpkRdm6IUNbibokJmv-36" value="Неделя (FK)" style="text;strokeColor=none;fillColor=none;spacingLeft=4;spacingRight=4;overflow=hidden;rotatable=0;points=[[0,0.5],[1,0.5]];portConstraint=eastwest;fontSize=12;" parent="zYMpkRdm6IUNbibokJmv-31" vertex="1">
          <mxGeometry y="154" width="220" height="30" as="geometry" />
        </mxCell>
        <mxCell id="zYMpkRdm6IUNbibokJmv-37" value="День недели (FK)" style="text;strokeColor=none;fillColor=none;spacingLeft=4;spacingRight=4;overflow=hidden;rotatable=0;points=[[0,0.5],[1,0.5]];portConstraint=eastwest;fontSize=12;" parent="zYMpkRdm6IUNbibokJmv-31" vertex="1">
          <mxGeometry y="184" width="220" height="30" as="geometry" />
        </mxCell>
        <mxCell id="zYMpkRdm6IUNbibokJmv-38" value="Номер пары (FK)" style="text;strokeColor=none;fillColor=none;spacingLeft=4;spacingRight=4;overflow=hidden;rotatable=0;points=[[0,0.5],[1,0.5]];portConstraint=eastwest;fontSize=12;" parent="zYMpkRdm6IUNbibokJmv-31" vertex="1">
          <mxGeometry y="214" width="220" height="30" as="geometry" />
        </mxCell>
        <mxCell id="rIVRspA-VsXGn7NL0aLw-14" value="Тип дисциплины (FK)" style="text;strokeColor=none;fillColor=none;spacingLeft=4;spacingRight=4;overflow=hidden;rotatable=0;points=[[0,0.5],[1,0.5]];portConstraint=eastwest;fontSize=12;" parent="zYMpkRdm6IUNbibokJmv-31" vertex="1">
          <mxGeometry y="244" width="220" height="30" as="geometry" />
        </mxCell>
        <mxCell id="zYMpkRdm6IUNbibokJmv-41" value="Ссылка на курс в мудл (FK)" style="text;strokeColor=none;fillColor=none;spacingLeft=4;spacingRight=4;overflow=hidden;rotatable=0;points=[[0,0.5],[1,0.5]];portConstraint=eastwest;fontSize=12;" parent="zYMpkRdm6IUNbibokJmv-31" vertex="1">
          <mxGeometry y="274" width="220" height="30" as="geometry" />
        </mxCell>
        <mxCell id="zYMpkRdm6IUNbibokJmv-53" value="Дисциплина" style="swimlane;fontStyle=0;childLayout=stackLayout;horizontal=1;startSize=26;horizontalStack=0;resizeParent=1;resizeParentMax=0;resizeLast=0;collapsible=1;marginBottom=0;align=left;fontSize=14;strokeWidth=3;" parent="1" vertex="1">
          <mxGeometry x="2895" y="-545" width="220" height="216" as="geometry" />
        </mxCell>
        <mxCell id="zYMpkRdm6IUNbibokJmv-54" value="Код дисциплина (PK)" style="text;strokeColor=none;fillColor=none;spacingLeft=4;spacingRight=4;overflow=hidden;rotatable=0;points=[[0,0.5],[1,0.5]];portConstraint=eastwest;fontSize=12;fontStyle=0" parent="zYMpkRdm6IUNbibokJmv-53" vertex="1">
          <mxGeometry y="26" width="220" height="30" as="geometry" />
        </mxCell>
        <mxCell id="e31-4b1JSL8lnOEHuN7n-1" value="" style="line;strokeWidth=1;rotatable=0;dashed=0;labelPosition=right;align=left;verticalAlign=middle;spacingTop=0;spacingLeft=6;points=[];portConstraint=eastwest;" parent="zYMpkRdm6IUNbibokJmv-53" vertex="1">
          <mxGeometry y="56" width="220" height="10" as="geometry" />
        </mxCell>
        <mxCell id="_17WigcSoXONT3Ec9sml-23" value="Кафедра (FK)" style="text;strokeColor=none;fillColor=none;spacingLeft=4;spacingRight=4;overflow=hidden;rotatable=0;points=[[0,0.5],[1,0.5]];portConstraint=eastwest;fontSize=12;" parent="zYMpkRdm6IUNbibokJmv-53" vertex="1">
          <mxGeometry y="66" width="220" height="30" as="geometry" />
        </mxCell>
        <mxCell id="zYMpkRdm6IUNbibokJmv-55" value="Наименование" style="text;strokeColor=none;fillColor=none;spacingLeft=4;spacingRight=4;overflow=hidden;rotatable=0;points=[[0,0.5],[1,0.5]];portConstraint=eastwest;fontSize=12;" parent="zYMpkRdm6IUNbibokJmv-53" vertex="1">
          <mxGeometry y="96" width="220" height="30" as="geometry" />
        </mxCell>
        <mxCell id="zYMpkRdm6IUNbibokJmv-56" value="Сокращенное наименование" style="text;strokeColor=none;fillColor=none;spacingLeft=4;spacingRight=4;overflow=hidden;rotatable=0;points=[[0,0.5],[1,0.5]];portConstraint=eastwest;fontSize=12;" parent="zYMpkRdm6IUNbibokJmv-53" vertex="1">
          <mxGeometry y="126" width="220" height="30" as="geometry" />
        </mxCell>
        <mxCell id="zYMpkRdm6IUNbibokJmv-57" value="Количество часов практик в семестр" style="text;strokeColor=none;fillColor=none;spacingLeft=4;spacingRight=4;overflow=hidden;rotatable=0;points=[[0,0.5],[1,0.5]];portConstraint=eastwest;fontSize=12;" parent="zYMpkRdm6IUNbibokJmv-53" vertex="1">
          <mxGeometry y="156" width="220" height="30" as="geometry" />
        </mxCell>
        <mxCell id="zYMpkRdm6IUNbibokJmv-58" value="Количество часов лекций в семестр" style="text;strokeColor=none;fillColor=none;spacingLeft=4;spacingRight=4;overflow=hidden;rotatable=0;points=[[0,0.5],[1,0.5]];portConstraint=eastwest;fontSize=12;" parent="zYMpkRdm6IUNbibokJmv-53" vertex="1">
          <mxGeometry y="186" width="220" height="30" as="geometry" />
        </mxCell>
        <mxCell id="zYMpkRdm6IUNbibokJmv-61" value="Преподаватель - Назначение пары" style="swimlane;childLayout=stackLayout;horizontal=1;startSize=30;horizontalStack=0;rounded=1;fontSize=14;fontStyle=0;strokeWidth=3;resizeParent=0;resizeLast=1;shadow=0;dashed=0;align=left;" parent="1" vertex="1">
          <mxGeometry x="2230" y="-142" width="237" height="80" as="geometry">
            <mxRectangle x="2230" y="-142" width="170" height="30" as="alternateBounds" />
          </mxGeometry>
        </mxCell>
        <mxCell id="zYMpkRdm6IUNbibokJmv-62" value="Код группа&#xa;Код преподаватель (FK)" style="align=left;strokeColor=none;fillColor=none;spacingLeft=4;fontSize=12;verticalAlign=top;resizable=0;rotatable=0;part=1;" parent="zYMpkRdm6IUNbibokJmv-61" vertex="1">
          <mxGeometry y="30" width="237" height="50" as="geometry" />
        </mxCell>
        <mxCell id="xMZ38Z4wrfJ14ddGWh8O-4" value="" style="edgeStyle=entityRelationEdgeStyle;fontSize=12;html=1;endArrow=ERoneToMany;startArrow=ERmandOne;rounded=0;exitX=1.001;exitY=0.475;exitDx=0;exitDy=0;entryX=0;entryY=0.4;entryDx=0;entryDy=0;entryPerimeter=0;exitPerimeter=0;" parent="1" source="zYMpkRdm6IUNbibokJmv-17" target="zYMpkRdm6IUNbibokJmv-62" edge="1">
          <mxGeometry width="100" height="100" relative="1" as="geometry">
            <mxPoint x="2253" y="-218.5" as="sourcePoint" />
            <mxPoint x="2297.867" y="-322.3499999999999" as="targetPoint" />
          </mxGeometry>
        </mxCell>
        <mxCell id="xMZ38Z4wrfJ14ddGWh8O-6" value="" style="edgeStyle=entityRelationEdgeStyle;fontSize=12;html=1;endArrow=ERoneToMany;startArrow=ERmandOne;rounded=0;entryX=1;entryY=0.25;entryDx=0;entryDy=0;exitX=0;exitY=0.5;exitDx=0;exitDy=0;endFill=0;" parent="1" source="zYMpkRdm6IUNbibokJmv-33" target="zYMpkRdm6IUNbibokJmv-62" edge="1">
          <mxGeometry width="100" height="100" relative="1" as="geometry">
            <mxPoint x="2518" y="-289" as="sourcePoint" />
            <mxPoint x="2570" y="-410" as="targetPoint" />
          </mxGeometry>
        </mxCell>
        <mxCell id="xMZ38Z4wrfJ14ddGWh8O-7" value="Кабинет" style="swimlane;fontStyle=0;childLayout=stackLayout;horizontal=1;startSize=26;horizontalStack=0;resizeParent=1;resizeParentMax=0;resizeLast=0;collapsible=1;marginBottom=0;align=left;fontSize=14;strokeWidth=3;" parent="1" vertex="1">
          <mxGeometry x="2321" y="-476" width="160" height="186" as="geometry" />
        </mxCell>
        <mxCell id="xMZ38Z4wrfJ14ddGWh8O-8" value="Номер кабинета (PK)" style="text;strokeColor=none;fillColor=none;spacingLeft=4;spacingRight=4;overflow=hidden;rotatable=0;points=[[0,0.5],[1,0.5]];portConstraint=eastwest;fontSize=12;fontStyle=0" parent="xMZ38Z4wrfJ14ddGWh8O-7" vertex="1">
          <mxGeometry y="26" width="160" height="30" as="geometry" />
        </mxCell>
        <mxCell id="e31-4b1JSL8lnOEHuN7n-4" value="" style="line;strokeWidth=1;rotatable=0;dashed=0;labelPosition=right;align=left;verticalAlign=middle;spacingTop=0;spacingLeft=6;points=[];portConstraint=eastwest;" parent="xMZ38Z4wrfJ14ddGWh8O-7" vertex="1">
          <mxGeometry y="56" width="160" height="10" as="geometry" />
        </mxCell>
        <mxCell id="_17WigcSoXONT3Ec9sml-30" value="Кафедра (FK)" style="text;strokeColor=none;fillColor=none;spacingLeft=4;spacingRight=4;overflow=hidden;rotatable=0;points=[[0,0.5],[1,0.5]];portConstraint=eastwest;fontSize=12;" parent="xMZ38Z4wrfJ14ddGWh8O-7" vertex="1">
          <mxGeometry y="66" width="160" height="30" as="geometry" />
        </mxCell>
        <mxCell id="xMZ38Z4wrfJ14ddGWh8O-9" value="Компьютерный класс" style="text;strokeColor=none;fillColor=none;spacingLeft=4;spacingRight=4;overflow=hidden;rotatable=0;points=[[0,0.5],[1,0.5]];portConstraint=eastwest;fontSize=12;" parent="xMZ38Z4wrfJ14ddGWh8O-7" vertex="1">
          <mxGeometry y="96" width="160" height="30" as="geometry" />
        </mxCell>
        <mxCell id="xMZ38Z4wrfJ14ddGWh8O-10" value="Электронная доска" style="text;strokeColor=none;fillColor=none;spacingLeft=4;spacingRight=4;overflow=hidden;rotatable=0;points=[[0,0.5],[1,0.5]];portConstraint=eastwest;fontSize=12;" parent="xMZ38Z4wrfJ14ddGWh8O-7" vertex="1">
          <mxGeometry y="126" width="160" height="30" as="geometry" />
        </mxCell>
        <mxCell id="xMZ38Z4wrfJ14ddGWh8O-11" value="Вместительность" style="text;strokeColor=none;fillColor=none;spacingLeft=4;spacingRight=4;overflow=hidden;rotatable=0;points=[[0,0.5],[1,0.5]];portConstraint=eastwest;fontSize=12;" parent="xMZ38Z4wrfJ14ddGWh8O-7" vertex="1">
          <mxGeometry y="156" width="160" height="30" as="geometry" />
        </mxCell>
        <mxCell id="xMZ38Z4wrfJ14ddGWh8O-12" value="Группа студентов" style="swimlane;fontStyle=0;childLayout=stackLayout;horizontal=1;startSize=26;horizontalStack=0;resizeParent=1;resizeParentMax=0;resizeLast=0;collapsible=1;marginBottom=0;align=left;fontSize=14;strokeWidth=4;" parent="1" vertex="1">
          <mxGeometry x="2040" y="-380" width="190" height="186" as="geometry" />
        </mxCell>
        <mxCell id="xMZ38Z4wrfJ14ddGWh8O-13" value="Код группы (PK)" style="text;strokeColor=none;fillColor=none;spacingLeft=4;spacingRight=4;overflow=hidden;rotatable=0;points=[[0,0.5],[1,0.5]];portConstraint=eastwest;fontSize=12;fontStyle=0" parent="xMZ38Z4wrfJ14ddGWh8O-12" vertex="1">
          <mxGeometry y="26" width="190" height="30" as="geometry" />
        </mxCell>
        <mxCell id="e31-4b1JSL8lnOEHuN7n-6" value="" style="line;strokeWidth=1;rotatable=0;dashed=0;labelPosition=right;align=left;verticalAlign=middle;spacingTop=0;spacingLeft=6;points=[];portConstraint=eastwest;" parent="xMZ38Z4wrfJ14ddGWh8O-12" vertex="1">
          <mxGeometry y="56" width="190" height="10" as="geometry" />
        </mxCell>
        <mxCell id="_17WigcSoXONT3Ec9sml-24" value="Краткое наименование группы" style="text;strokeColor=none;fillColor=none;spacingLeft=4;spacingRight=4;overflow=hidden;rotatable=0;points=[[0,0.5],[1,0.5]];portConstraint=eastwest;fontSize=12;" parent="xMZ38Z4wrfJ14ddGWh8O-12" vertex="1">
          <mxGeometry y="66" width="190" height="30" as="geometry" />
        </mxCell>
        <mxCell id="_17WigcSoXONT3Ec9sml-25" value="Полное наименование группы" style="text;strokeColor=none;fillColor=none;spacingLeft=4;spacingRight=4;overflow=hidden;rotatable=0;points=[[0,0.5],[1,0.5]];portConstraint=eastwest;fontSize=12;" parent="xMZ38Z4wrfJ14ddGWh8O-12" vertex="1">
          <mxGeometry y="96" width="190" height="30" as="geometry" />
        </mxCell>
        <mxCell id="xMZ38Z4wrfJ14ddGWh8O-14" value="Количество студентов" style="text;strokeColor=none;fillColor=none;spacingLeft=4;spacingRight=4;overflow=hidden;rotatable=0;points=[[0,0.5],[1,0.5]];portConstraint=eastwest;fontSize=12;" parent="xMZ38Z4wrfJ14ddGWh8O-12" vertex="1">
          <mxGeometry y="126" width="190" height="30" as="geometry" />
        </mxCell>
        <mxCell id="xMZ38Z4wrfJ14ddGWh8O-16" value="Специальность (FK)" style="text;strokeColor=none;fillColor=none;spacingLeft=4;spacingRight=4;overflow=hidden;rotatable=0;points=[[0,0.5],[1,0.5]];portConstraint=eastwest;fontSize=12;" parent="xMZ38Z4wrfJ14ddGWh8O-12" vertex="1">
          <mxGeometry y="156" width="190" height="30" as="geometry" />
        </mxCell>
        <mxCell id="xMZ38Z4wrfJ14ddGWh8O-17" value="Неделя" style="swimlane;fontStyle=0;childLayout=stackLayout;horizontal=1;startSize=26;horizontalStack=0;resizeParent=1;resizeParentMax=0;resizeLast=0;collapsible=1;marginBottom=0;align=left;fontSize=14;strokeWidth=3;" parent="1" vertex="1">
          <mxGeometry x="2950" y="-268" width="160" height="96" as="geometry" />
        </mxCell>
        <mxCell id="xMZ38Z4wrfJ14ddGWh8O-18" value="Код недели (PK)" style="text;strokeColor=none;fillColor=none;spacingLeft=4;spacingRight=4;overflow=hidden;rotatable=0;points=[[0,0.5],[1,0.5]];portConstraint=eastwest;fontSize=12;fontStyle=0" parent="xMZ38Z4wrfJ14ddGWh8O-17" vertex="1">
          <mxGeometry y="26" width="160" height="30" as="geometry" />
        </mxCell>
        <mxCell id="e31-4b1JSL8lnOEHuN7n-3" value="" style="line;strokeWidth=1;rotatable=0;dashed=0;labelPosition=right;align=left;verticalAlign=middle;spacingTop=0;spacingLeft=6;points=[];portConstraint=eastwest;" parent="xMZ38Z4wrfJ14ddGWh8O-17" vertex="1">
          <mxGeometry y="56" width="160" height="10" as="geometry" />
        </mxCell>
        <mxCell id="xMZ38Z4wrfJ14ddGWh8O-19" value="Название" style="text;strokeColor=none;fillColor=none;spacingLeft=4;spacingRight=4;overflow=hidden;rotatable=0;points=[[0,0.5],[1,0.5]];portConstraint=eastwest;fontSize=12;" parent="xMZ38Z4wrfJ14ddGWh8O-17" vertex="1">
          <mxGeometry y="66" width="160" height="30" as="geometry" />
        </mxCell>
        <mxCell id="xMZ38Z4wrfJ14ddGWh8O-22" value="День недели" style="swimlane;fontStyle=0;childLayout=stackLayout;horizontal=1;startSize=26;horizontalStack=0;resizeParent=1;resizeParentMax=0;resizeLast=0;collapsible=1;marginBottom=0;align=left;fontSize=14;strokeWidth=3;" parent="1" vertex="1">
          <mxGeometry x="2320" y="-26" width="160" height="96" as="geometry" />
        </mxCell>
        <mxCell id="xMZ38Z4wrfJ14ddGWh8O-23" value="Код дня недели (PK)" style="text;strokeColor=none;fillColor=none;spacingLeft=4;spacingRight=4;overflow=hidden;rotatable=0;points=[[0,0.5],[1,0.5]];portConstraint=eastwest;fontSize=12;fontStyle=0" parent="xMZ38Z4wrfJ14ddGWh8O-22" vertex="1">
          <mxGeometry y="26" width="160" height="30" as="geometry" />
        </mxCell>
        <mxCell id="_17WigcSoXONT3Ec9sml-1" value="" style="line;strokeWidth=1;rotatable=0;dashed=0;labelPosition=right;align=left;verticalAlign=middle;spacingTop=0;spacingLeft=6;points=[];portConstraint=eastwest;" parent="xMZ38Z4wrfJ14ddGWh8O-22" vertex="1">
          <mxGeometry y="56" width="160" height="10" as="geometry" />
        </mxCell>
        <mxCell id="xMZ38Z4wrfJ14ddGWh8O-24" value="Название" style="text;strokeColor=none;fillColor=none;spacingLeft=4;spacingRight=4;overflow=hidden;rotatable=0;points=[[0,0.5],[1,0.5]];portConstraint=eastwest;fontSize=12;" parent="xMZ38Z4wrfJ14ddGWh8O-22" vertex="1">
          <mxGeometry y="66" width="160" height="30" as="geometry" />
        </mxCell>
        <mxCell id="rIVRspA-VsXGn7NL0aLw-1" value="Пара" style="swimlane;fontStyle=0;childLayout=stackLayout;horizontal=1;startSize=26;horizontalStack=0;resizeParent=1;resizeParentMax=0;resizeLast=0;collapsible=1;marginBottom=0;align=left;fontSize=14;" parent="1" vertex="1">
          <mxGeometry x="-355" y="-130" width="220" height="146" as="geometry" />
        </mxCell>
        <mxCell id="rIVRspA-VsXGn7NL0aLw-2" value="Код пары (PK)" style="text;strokeColor=none;fillColor=none;spacingLeft=4;spacingRight=4;overflow=hidden;rotatable=0;points=[[0,0.5],[1,0.5]];portConstraint=eastwest;fontSize=12;fontStyle=0" parent="rIVRspA-VsXGn7NL0aLw-1" vertex="1">
          <mxGeometry y="26" width="220" height="30" as="geometry" />
        </mxCell>
        <mxCell id="rIVRspA-VsXGn7NL0aLw-3" value="Преподаватель (FK)" style="text;strokeColor=none;fillColor=none;spacingLeft=4;spacingRight=4;overflow=hidden;rotatable=0;points=[[0,0.5],[1,0.5]];portConstraint=eastwest;fontSize=12;" parent="rIVRspA-VsXGn7NL0aLw-1" vertex="1">
          <mxGeometry y="56" width="220" height="30" as="geometry" />
        </mxCell>
        <mxCell id="rIVRspA-VsXGn7NL0aLw-4" value="Дисциплина (FK)" style="text;strokeColor=none;fillColor=none;spacingLeft=4;spacingRight=4;overflow=hidden;rotatable=0;points=[[0,0.5],[1,0.5]];portConstraint=eastwest;fontSize=12;" parent="rIVRspA-VsXGn7NL0aLw-1" vertex="1">
          <mxGeometry y="86" width="220" height="30" as="geometry" />
        </mxCell>
        <mxCell id="rIVRspA-VsXGn7NL0aLw-5" value="Тип пары" style="text;strokeColor=none;fillColor=none;spacingLeft=4;spacingRight=4;overflow=hidden;rotatable=0;points=[[0,0.5],[1,0.5]];portConstraint=eastwest;fontSize=12;" parent="rIVRspA-VsXGn7NL0aLw-1" vertex="1">
          <mxGeometry y="116" width="220" height="30" as="geometry" />
        </mxCell>
        <mxCell id="rIVRspA-VsXGn7NL0aLw-6" value="" style="edgeStyle=entityRelationEdgeStyle;fontSize=12;html=1;endArrow=ERmandOne;startArrow=ERmandOne;rounded=0;exitX=0;exitY=0.5;exitDx=0;exitDy=0;entryX=1;entryY=0.5;entryDx=0;entryDy=0;endFill=0;" parent="1" source="zYMpkRdm6IUNbibokJmv-58" target="rIVRspA-VsXGn7NL0aLw-7" edge="1">
          <mxGeometry width="100" height="100" relative="1" as="geometry">
            <mxPoint x="2780" y="-340" as="sourcePoint" />
            <mxPoint x="2940" y="-230" as="targetPoint" />
          </mxGeometry>
        </mxCell>
        <mxCell id="rIVRspA-VsXGn7NL0aLw-9" value="" style="edgeStyle=entityRelationEdgeStyle;fontSize=12;html=1;endArrow=ERmandOne;startArrow=ERmandOne;rounded=0;exitX=0;exitY=0.5;exitDx=0;exitDy=0;entryX=1;entryY=0.5;entryDx=0;entryDy=0;endFill=0;" parent="1" source="xMZ38Z4wrfJ14ddGWh8O-18" target="zYMpkRdm6IUNbibokJmv-36" edge="1">
          <mxGeometry width="100" height="100" relative="1" as="geometry">
            <mxPoint x="2860" y="-54" as="sourcePoint" />
            <mxPoint x="3069" y="-4" as="targetPoint" />
          </mxGeometry>
        </mxCell>
        <mxCell id="rIVRspA-VsXGn7NL0aLw-11" value="" style="edgeStyle=entityRelationEdgeStyle;fontSize=12;html=1;endArrow=ERmandOne;startArrow=ERmandOne;rounded=0;entryX=0;entryY=0.5;entryDx=0;entryDy=0;exitX=1;exitY=0.5;exitDx=0;exitDy=0;endFill=0;" parent="1" source="xMZ38Z4wrfJ14ddGWh8O-23" target="zYMpkRdm6IUNbibokJmv-37" edge="1">
          <mxGeometry width="100" height="100" relative="1" as="geometry">
            <mxPoint x="2517" y="-158" as="sourcePoint" />
            <mxPoint x="2370" y="-269" as="targetPoint" />
          </mxGeometry>
        </mxCell>
        <mxCell id="rIVRspA-VsXGn7NL0aLw-12" value="" style="edgeStyle=entityRelationEdgeStyle;fontSize=12;html=1;endArrow=ERoneToMany;startArrow=ERmandOne;rounded=0;exitX=1;exitY=0.5;exitDx=0;exitDy=0;entryX=0;entryY=0.5;entryDx=0;entryDy=0;" parent="1" source="xMZ38Z4wrfJ14ddGWh8O-8" target="zYMpkRdm6IUNbibokJmv-39" edge="1">
          <mxGeometry width="100" height="100" relative="1" as="geometry">
            <mxPoint x="2955" y="-49" as="sourcePoint" />
            <mxPoint x="2765" y="-54" as="targetPoint" />
          </mxGeometry>
        </mxCell>
        <mxCell id="rIVRspA-VsXGn7NL0aLw-13" value="" style="edgeStyle=entityRelationEdgeStyle;fontSize=12;html=1;endArrow=ERoneToMany;startArrow=ERmandOne;rounded=0;exitX=1;exitY=0.5;exitDx=0;exitDy=0;endFill=0;entryX=0;entryY=0.25;entryDx=0;entryDy=0;" parent="1" source="xMZ38Z4wrfJ14ddGWh8O-14" target="rIVRspA-VsXGn7NL0aLw-20" edge="1">
          <mxGeometry width="100" height="100" relative="1" as="geometry">
            <mxPoint x="2363" y="-34" as="sourcePoint" />
            <mxPoint x="2313" y="66" as="targetPoint" />
          </mxGeometry>
        </mxCell>
        <mxCell id="rIVRspA-VsXGn7NL0aLw-19" value="Назначение на пару" style="swimlane;childLayout=stackLayout;horizontal=1;startSize=30;horizontalStack=0;rounded=1;fontSize=14;fontStyle=0;strokeWidth=4;resizeParent=0;resizeLast=1;shadow=0;dashed=0;align=left;" parent="1" vertex="1">
          <mxGeometry x="2309" y="-260" width="202" height="100" as="geometry">
            <mxRectangle x="930" y="-40" width="170" height="30" as="alternateBounds" />
          </mxGeometry>
        </mxCell>
        <mxCell id="rIVRspA-VsXGn7NL0aLw-20" value="id (PK)&#xa;Код назначение на пару (FK)&#xa;Код группы (FK)" style="align=left;strokeColor=none;fillColor=none;spacingLeft=4;fontSize=12;verticalAlign=top;resizable=0;rotatable=0;part=1;" parent="rIVRspA-VsXGn7NL0aLw-19" vertex="1">
          <mxGeometry y="30" width="202" height="70" as="geometry" />
        </mxCell>
        <mxCell id="rIVRspA-VsXGn7NL0aLw-21" value="" style="edgeStyle=entityRelationEdgeStyle;fontSize=12;html=1;endArrow=ERoneToMany;startArrow=ERmandOne;rounded=0;entryX=1.001;entryY=0.186;entryDx=0;entryDy=0;exitX=0;exitY=0.5;exitDx=0;exitDy=0;endFill=0;entryPerimeter=0;" parent="1" source="zYMpkRdm6IUNbibokJmv-32" target="rIVRspA-VsXGn7NL0aLw-20" edge="1">
          <mxGeometry width="100" height="100" relative="1" as="geometry">
            <mxPoint x="2590" y="-205" as="sourcePoint" />
            <mxPoint x="2480" y="-163" as="targetPoint" />
          </mxGeometry>
        </mxCell>
        <mxCell id="rIVRspA-VsXGn7NL0aLw-22" value="" style="edgeStyle=entityRelationEdgeStyle;fontSize=12;html=1;endArrow=ERzeroToMany;startArrow=ERmandOne;rounded=0;entryX=-0.002;entryY=0.167;entryDx=0;entryDy=0;entryPerimeter=0;exitX=1;exitY=0.5;exitDx=0;exitDy=0;endFill=0;" parent="1" source="zYMpkRdm6IUNbibokJmv-21" target="rIVRspA-VsXGn7NL0aLw-23" edge="1">
          <mxGeometry width="100" height="100" relative="1" as="geometry">
            <mxPoint x="2120" y="-100" as="sourcePoint" />
            <mxPoint x="2197.6" y="-87.58399999999983" as="targetPoint" />
          </mxGeometry>
        </mxCell>
        <mxCell id="rIVRspA-VsXGn7NL0aLw-23" value="Контактные данные" style="swimlane;childLayout=stackLayout;horizontal=1;startSize=30;horizontalStack=0;rounded=1;fontSize=14;fontStyle=0;strokeWidth=3;resizeParent=0;resizeLast=1;shadow=0;dashed=0;align=left;" parent="1" vertex="1">
          <mxGeometry x="2060" y="-22" width="160" height="120" as="geometry" />
        </mxCell>
        <mxCell id="rIVRspA-VsXGn7NL0aLw-24" value="Код преподаватель&#xa;Контактные данные" style="align=left;strokeColor=none;fillColor=none;spacingLeft=4;fontSize=12;verticalAlign=top;resizable=0;rotatable=0;part=1;" parent="rIVRspA-VsXGn7NL0aLw-23" vertex="1">
          <mxGeometry y="30" width="160" height="90" as="geometry" />
        </mxCell>
        <mxCell id="rIVRspA-VsXGn7NL0aLw-26" value="Пользователи" style="swimlane;fontStyle=0;childLayout=stackLayout;horizontal=1;startSize=26;horizontalStack=0;resizeParent=1;resizeParentMax=0;resizeLast=0;collapsible=1;marginBottom=0;align=left;fontSize=14;" parent="1" vertex="1">
          <mxGeometry x="-420" y="-512" width="220" height="244" as="geometry" />
        </mxCell>
        <mxCell id="rIVRspA-VsXGn7NL0aLw-27" value="Уникальный идентификатор (PK)" style="text;strokeColor=none;fillColor=none;spacingLeft=4;spacingRight=4;overflow=hidden;rotatable=0;points=[[0,0.5],[1,0.5]];portConstraint=eastwest;fontSize=12;fontStyle=0" parent="rIVRspA-VsXGn7NL0aLw-26" vertex="1">
          <mxGeometry y="26" width="220" height="30" as="geometry" />
        </mxCell>
        <mxCell id="rIVRspA-VsXGn7NL0aLw-28" value="" style="line;strokeWidth=1;fillColor=none;align=left;verticalAlign=middle;spacingTop=-1;spacingLeft=3;spacingRight=3;rotatable=0;labelPosition=right;points=[];portConstraint=eastwest;strokeColor=inherit;" parent="rIVRspA-VsXGn7NL0aLw-26" vertex="1">
          <mxGeometry y="56" width="220" height="8" as="geometry" />
        </mxCell>
        <mxCell id="rIVRspA-VsXGn7NL0aLw-29" value="Имя" style="text;strokeColor=none;fillColor=none;spacingLeft=4;spacingRight=4;overflow=hidden;rotatable=0;points=[[0,0.5],[1,0.5]];portConstraint=eastwest;fontSize=12;" parent="rIVRspA-VsXGn7NL0aLw-26" vertex="1">
          <mxGeometry y="64" width="220" height="30" as="geometry" />
        </mxCell>
        <mxCell id="rIVRspA-VsXGn7NL0aLw-30" value="Фамилия" style="text;strokeColor=none;fillColor=none;spacingLeft=4;spacingRight=4;overflow=hidden;rotatable=0;points=[[0,0.5],[1,0.5]];portConstraint=eastwest;fontSize=12;" parent="rIVRspA-VsXGn7NL0aLw-26" vertex="1">
          <mxGeometry y="94" width="220" height="30" as="geometry" />
        </mxCell>
        <mxCell id="rIVRspA-VsXGn7NL0aLw-31" value="Аутентификация в мудл" style="text;strokeColor=none;fillColor=none;spacingLeft=4;spacingRight=4;overflow=hidden;rotatable=0;points=[[0,0.5],[1,0.5]];portConstraint=eastwest;fontSize=12;" parent="rIVRspA-VsXGn7NL0aLw-26" vertex="1">
          <mxGeometry y="124" width="220" height="30" as="geometry" />
        </mxCell>
        <mxCell id="rIVRspA-VsXGn7NL0aLw-32" value="Роль пользователя" style="text;strokeColor=none;fillColor=none;spacingLeft=4;spacingRight=4;overflow=hidden;rotatable=0;points=[[0,0.5],[1,0.5]];portConstraint=eastwest;fontSize=12;" parent="rIVRspA-VsXGn7NL0aLw-26" vertex="1">
          <mxGeometry y="154" width="220" height="30" as="geometry" />
        </mxCell>
        <mxCell id="rIVRspA-VsXGn7NL0aLw-33" value="Группа" style="text;strokeColor=none;fillColor=none;spacingLeft=4;spacingRight=4;overflow=hidden;rotatable=0;points=[[0,0.5],[1,0.5]];portConstraint=eastwest;fontSize=12;" parent="rIVRspA-VsXGn7NL0aLw-26" vertex="1">
          <mxGeometry y="184" width="220" height="30" as="geometry" />
        </mxCell>
        <mxCell id="rIVRspA-VsXGn7NL0aLw-34" value="Локальные изменения пользователя" style="text;strokeColor=none;fillColor=none;spacingLeft=4;spacingRight=4;overflow=hidden;rotatable=0;points=[[0,0.5],[1,0.5]];portConstraint=eastwest;fontSize=12;" parent="rIVRspA-VsXGn7NL0aLw-26" vertex="1">
          <mxGeometry y="214" width="220" height="30" as="geometry" />
        </mxCell>
        <mxCell id="rIVRspA-VsXGn7NL0aLw-35" value="Аутентификация в мудл" style="swimlane;childLayout=stackLayout;horizontal=1;startSize=30;horizontalStack=0;rounded=1;fontSize=14;fontStyle=0;strokeWidth=2;resizeParent=0;resizeLast=1;shadow=0;dashed=0;align=left;" parent="1" vertex="1">
          <mxGeometry x="-100" y="-454" width="160" height="120" as="geometry" />
        </mxCell>
        <mxCell id="rIVRspA-VsXGn7NL0aLw-36" value="Логин от мудл&#xa;Пароль от мудл" style="align=left;strokeColor=none;fillColor=none;spacingLeft=4;fontSize=12;verticalAlign=top;resizable=0;rotatable=0;part=1;" parent="rIVRspA-VsXGn7NL0aLw-35" vertex="1">
          <mxGeometry y="30" width="160" height="90" as="geometry" />
        </mxCell>
        <mxCell id="rIVRspA-VsXGn7NL0aLw-37" value="" style="edgeStyle=entityRelationEdgeStyle;fontSize=12;html=1;endArrow=ERzeroToMany;startArrow=ERmandOne;rounded=0;entryX=-0.009;entryY=0.183;entryDx=0;entryDy=0;entryPerimeter=0;exitX=1;exitY=0.5;exitDx=0;exitDy=0;" parent="1" source="rIVRspA-VsXGn7NL0aLw-31" target="rIVRspA-VsXGn7NL0aLw-35" edge="1">
          <mxGeometry width="100" height="100" relative="1" as="geometry">
            <mxPoint x="-170" y="-462" as="sourcePoint" />
            <mxPoint x="-90.31999999999971" y="-442.96000000000004" as="targetPoint" />
          </mxGeometry>
        </mxCell>
        <mxCell id="rIVRspA-VsXGn7NL0aLw-38" value="&lt;font style=&quot;font-size: 24px;&quot;&gt;Аунтефикация это отдельная БД&lt;/font&gt;" style="text;strokeColor=none;align=center;fillColor=none;html=1;verticalAlign=middle;whiteSpace=wrap;rounded=0;" parent="1" vertex="1">
          <mxGeometry x="-370" y="-633" width="60" height="30" as="geometry" />
        </mxCell>
        <mxCell id="_17WigcSoXONT3Ec9sml-2" value="Номер пары" style="swimlane;fontStyle=0;childLayout=stackLayout;horizontal=1;startSize=26;horizontalStack=0;resizeParent=1;resizeParentMax=0;resizeLast=0;collapsible=1;marginBottom=0;align=left;fontSize=14;strokeWidth=3;" parent="1" vertex="1">
          <mxGeometry x="2925" y="-136" width="160" height="96" as="geometry" />
        </mxCell>
        <mxCell id="_17WigcSoXONT3Ec9sml-3" value="Код номера пары (PK)" style="text;strokeColor=none;fillColor=none;spacingLeft=4;spacingRight=4;overflow=hidden;rotatable=0;points=[[0,0.5],[1,0.5]];portConstraint=eastwest;fontSize=12;fontStyle=0;strokeWidth=3;" parent="_17WigcSoXONT3Ec9sml-2" vertex="1">
          <mxGeometry y="26" width="160" height="30" as="geometry" />
        </mxCell>
        <mxCell id="_17WigcSoXONT3Ec9sml-4" value="" style="line;strokeWidth=3;rotatable=0;dashed=0;labelPosition=right;align=left;verticalAlign=middle;spacingTop=0;spacingLeft=6;points=[];portConstraint=eastwest;" parent="_17WigcSoXONT3Ec9sml-2" vertex="1">
          <mxGeometry y="56" width="160" height="10" as="geometry" />
        </mxCell>
        <mxCell id="_17WigcSoXONT3Ec9sml-5" value="Номер пары" style="text;strokeColor=none;fillColor=none;spacingLeft=4;spacingRight=4;overflow=hidden;rotatable=0;points=[[0,0.5],[1,0.5]];portConstraint=eastwest;fontSize=12;strokeWidth=3;" parent="_17WigcSoXONT3Ec9sml-2" vertex="1">
          <mxGeometry y="66" width="160" height="30" as="geometry" />
        </mxCell>
        <mxCell id="_17WigcSoXONT3Ec9sml-7" value="Тип дисциплины" style="swimlane;fontStyle=0;childLayout=stackLayout;horizontal=1;startSize=26;horizontalStack=0;resizeParent=1;resizeParentMax=0;resizeLast=0;collapsible=1;marginBottom=0;align=left;fontSize=14;strokeWidth=3;" parent="1" vertex="1">
          <mxGeometry x="2925" y="24" width="160" height="96" as="geometry" />
        </mxCell>
        <mxCell id="_17WigcSoXONT3Ec9sml-8" value="Код дисциплины (PK)" style="text;strokeColor=none;fillColor=none;spacingLeft=4;spacingRight=4;overflow=hidden;rotatable=0;points=[[0,0.5],[1,0.5]];portConstraint=eastwest;fontSize=12;fontStyle=0;strokeWidth=3;" parent="_17WigcSoXONT3Ec9sml-7" vertex="1">
          <mxGeometry y="26" width="160" height="30" as="geometry" />
        </mxCell>
        <mxCell id="_17WigcSoXONT3Ec9sml-9" value="" style="line;strokeWidth=3;rotatable=0;dashed=0;labelPosition=right;align=left;verticalAlign=middle;spacingTop=0;spacingLeft=6;points=[];portConstraint=eastwest;" parent="_17WigcSoXONT3Ec9sml-7" vertex="1">
          <mxGeometry y="56" width="160" height="10" as="geometry" />
        </mxCell>
        <mxCell id="_17WigcSoXONT3Ec9sml-10" value="Название типа" style="text;strokeColor=none;fillColor=none;spacingLeft=4;spacingRight=4;overflow=hidden;rotatable=0;points=[[0,0.5],[1,0.5]];portConstraint=eastwest;fontSize=12;strokeWidth=3;" parent="_17WigcSoXONT3Ec9sml-7" vertex="1">
          <mxGeometry y="66" width="160" height="30" as="geometry" />
        </mxCell>
        <mxCell id="_17WigcSoXONT3Ec9sml-11" value="" style="edgeStyle=entityRelationEdgeStyle;fontSize=12;html=1;endArrow=ERmandOne;startArrow=ERmandOne;rounded=0;exitX=1;exitY=0.5;exitDx=0;exitDy=0;endFill=0;entryX=-0.01;entryY=0.132;entryDx=0;entryDy=0;entryPerimeter=0;" parent="1" source="rIVRspA-VsXGn7NL0aLw-14" target="_17WigcSoXONT3Ec9sml-7" edge="1">
          <mxGeometry width="100" height="100" relative="1" as="geometry">
            <mxPoint x="2840" y="76" as="sourcePoint" />
            <mxPoint x="2897" y="52" as="targetPoint" />
          </mxGeometry>
        </mxCell>
        <mxCell id="_17WigcSoXONT3Ec9sml-12" value="Ссылка на курс в мудл" style="swimlane;fontStyle=0;childLayout=stackLayout;horizontal=1;startSize=26;horizontalStack=0;resizeParent=1;resizeParentMax=0;resizeLast=0;collapsible=1;marginBottom=0;align=left;fontSize=14;" parent="1" vertex="1">
          <mxGeometry x="2350" y="120" width="160" height="96" as="geometry" />
        </mxCell>
        <mxCell id="_17WigcSoXONT3Ec9sml-13" value="Код ссылки (PK)" style="text;strokeColor=none;fillColor=none;spacingLeft=4;spacingRight=4;overflow=hidden;rotatable=0;points=[[0,0.5],[1,0.5]];portConstraint=eastwest;fontSize=12;fontStyle=0" parent="_17WigcSoXONT3Ec9sml-12" vertex="1">
          <mxGeometry y="26" width="160" height="30" as="geometry" />
        </mxCell>
        <mxCell id="_17WigcSoXONT3Ec9sml-14" value="" style="line;strokeWidth=1;rotatable=0;dashed=0;labelPosition=right;align=left;verticalAlign=middle;spacingTop=0;spacingLeft=6;points=[];portConstraint=eastwest;" parent="_17WigcSoXONT3Ec9sml-12" vertex="1">
          <mxGeometry y="56" width="160" height="10" as="geometry" />
        </mxCell>
        <mxCell id="_17WigcSoXONT3Ec9sml-15" value="Ссылка" style="text;strokeColor=none;fillColor=none;spacingLeft=4;spacingRight=4;overflow=hidden;rotatable=0;points=[[0,0.5],[1,0.5]];portConstraint=eastwest;fontSize=12;" parent="_17WigcSoXONT3Ec9sml-12" vertex="1">
          <mxGeometry y="66" width="160" height="30" as="geometry" />
        </mxCell>
        <mxCell id="_17WigcSoXONT3Ec9sml-16" value="" style="edgeStyle=entityRelationEdgeStyle;fontSize=12;html=1;endArrow=ERmandOne;startArrow=ERmandOne;rounded=0;entryX=0;entryY=0.5;entryDx=0;entryDy=0;exitX=1.004;exitY=0.147;exitDx=0;exitDy=0;endFill=0;exitPerimeter=0;" parent="1" source="_17WigcSoXONT3Ec9sml-12" target="zYMpkRdm6IUNbibokJmv-41" edge="1">
          <mxGeometry width="100" height="100" relative="1" as="geometry">
            <mxPoint x="2492" y="-113" as="sourcePoint" />
            <mxPoint x="2600" y="-105" as="targetPoint" />
          </mxGeometry>
        </mxCell>
        <mxCell id="_17WigcSoXONT3Ec9sml-17" value="Кафедра" style="swimlane;fontStyle=0;childLayout=stackLayout;horizontal=1;startSize=26;horizontalStack=0;resizeParent=1;resizeParentMax=0;resizeLast=0;collapsible=1;marginBottom=0;align=left;fontSize=14;strokeWidth=3;" parent="1" vertex="1">
          <mxGeometry x="1481" y="-650" width="194" height="186" as="geometry">
            <mxRectangle x="1481" y="-650" width="100" height="30" as="alternateBounds" />
          </mxGeometry>
        </mxCell>
        <mxCell id="_17WigcSoXONT3Ec9sml-18" value="Код кафедры (PK)" style="text;strokeColor=none;fillColor=none;spacingLeft=4;spacingRight=4;overflow=hidden;rotatable=0;points=[[0,0.5],[1,0.5]];portConstraint=eastwest;fontSize=12;fontStyle=0;strokeWidth=3;" parent="_17WigcSoXONT3Ec9sml-17" vertex="1">
          <mxGeometry y="26" width="194" height="30" as="geometry" />
        </mxCell>
        <mxCell id="_17WigcSoXONT3Ec9sml-19" value="" style="line;strokeWidth=3;rotatable=0;dashed=0;labelPosition=right;align=left;verticalAlign=middle;spacingTop=0;spacingLeft=6;points=[];portConstraint=eastwest;" parent="_17WigcSoXONT3Ec9sml-17" vertex="1">
          <mxGeometry y="56" width="194" height="10" as="geometry" />
        </mxCell>
        <mxCell id="_17WigcSoXONT3Ec9sml-20" value="Полное наименование кафедры" style="text;strokeColor=none;fillColor=none;spacingLeft=4;spacingRight=4;overflow=hidden;rotatable=0;points=[[0,0.5],[1,0.5]];portConstraint=eastwest;fontSize=12;strokeWidth=3;" parent="_17WigcSoXONT3Ec9sml-17" vertex="1">
          <mxGeometry y="66" width="194" height="30" as="geometry" />
        </mxCell>
        <mxCell id="_17WigcSoXONT3Ec9sml-21" value="Краткое наименование кафедры" style="text;strokeColor=none;fillColor=none;spacingLeft=4;spacingRight=4;overflow=hidden;rotatable=0;points=[[0,0.5],[1,0.5]];portConstraint=eastwest;fontSize=12;strokeWidth=3;" parent="_17WigcSoXONT3Ec9sml-17" vertex="1">
          <mxGeometry y="96" width="194" height="30" as="geometry" />
        </mxCell>
        <mxCell id="_17WigcSoXONT3Ec9sml-35" value="Номер кабинета" style="text;strokeColor=none;fillColor=none;spacingLeft=4;spacingRight=4;overflow=hidden;rotatable=0;points=[[0,0.5],[1,0.5]];portConstraint=eastwest;fontSize=12;strokeWidth=3;" parent="_17WigcSoXONT3Ec9sml-17" vertex="1">
          <mxGeometry y="126" width="194" height="30" as="geometry" />
        </mxCell>
        <mxCell id="_17WigcSoXONT3Ec9sml-22" value="Контактные данные" style="text;strokeColor=none;fillColor=none;spacingLeft=4;spacingRight=4;overflow=hidden;rotatable=0;points=[[0,0.5],[1,0.5]];portConstraint=eastwest;fontSize=12;strokeWidth=3;" parent="_17WigcSoXONT3Ec9sml-17" vertex="1">
          <mxGeometry y="156" width="194" height="30" as="geometry" />
        </mxCell>
        <mxCell id="_17WigcSoXONT3Ec9sml-6" value="" style="edgeStyle=entityRelationEdgeStyle;fontSize=12;html=1;endArrow=ERmandOne;startArrow=ERmandOne;rounded=0;entryX=-0.007;entryY=0.161;entryDx=0;entryDy=0;exitX=1;exitY=0.5;exitDx=0;exitDy=0;endFill=0;entryPerimeter=0;" parent="1" source="zYMpkRdm6IUNbibokJmv-38" target="_17WigcSoXONT3Ec9sml-2" edge="1">
          <mxGeometry width="100" height="100" relative="1" as="geometry">
            <mxPoint x="2491" y="-219" as="sourcePoint" />
            <mxPoint x="2600" y="-135" as="targetPoint" />
          </mxGeometry>
        </mxCell>
        <mxCell id="_17WigcSoXONT3Ec9sml-26" value="" style="edgeStyle=entityRelationEdgeStyle;fontSize=12;html=1;endArrow=ERoneToMany;startArrow=ERmandOne;rounded=0;exitX=1;exitY=0.5;exitDx=0;exitDy=0;endFill=0;entryX=0;entryY=0.5;entryDx=0;entryDy=0;" parent="1" source="_17WigcSoXONT3Ec9sml-18" target="zYMpkRdm6IUNbibokJmv-22" edge="1">
          <mxGeometry width="100" height="100" relative="1" as="geometry">
            <mxPoint x="1840" y="-584" as="sourcePoint" />
            <mxPoint x="1919" y="-553" as="targetPoint" />
          </mxGeometry>
        </mxCell>
        <mxCell id="_17WigcSoXONT3Ec9sml-27" value="" style="edgeStyle=entityRelationEdgeStyle;fontSize=12;html=1;endArrow=ERoneToMany;startArrow=ERmandOne;rounded=0;exitX=1;exitY=0.5;exitDx=0;exitDy=0;endFill=0;entryX=0;entryY=0.104;entryDx=0;entryDy=0;entryPerimeter=0;" parent="1" source="_17WigcSoXONT3Ec9sml-18" target="_17WigcSoXONT3Ec9sml-37" edge="1">
          <mxGeometry width="100" height="100" relative="1" as="geometry">
            <mxPoint x="1780" y="-639" as="sourcePoint" />
            <mxPoint x="1890" y="-129" as="targetPoint" />
          </mxGeometry>
        </mxCell>
        <mxCell id="_17WigcSoXONT3Ec9sml-28" value="" style="edgeStyle=entityRelationEdgeStyle;fontSize=12;html=1;endArrow=ERoneToMany;startArrow=ERmandOne;rounded=0;endFill=0;entryX=0;entryY=0.5;entryDx=0;entryDy=0;exitX=1;exitY=0.5;exitDx=0;exitDy=0;" parent="1" source="_17WigcSoXONT3Ec9sml-18" target="_17WigcSoXONT3Ec9sml-23" edge="1">
          <mxGeometry width="100" height="100" relative="1" as="geometry">
            <mxPoint x="1770" y="-650" as="sourcePoint" />
            <mxPoint x="2050" y="-269" as="targetPoint" />
          </mxGeometry>
        </mxCell>
        <mxCell id="_17WigcSoXONT3Ec9sml-29" value="" style="edgeStyle=entityRelationEdgeStyle;fontSize=12;html=1;endArrow=ERoneToMany;startArrow=ERmandOne;rounded=0;endFill=0;entryX=0;entryY=0.5;entryDx=0;entryDy=0;exitX=1;exitY=0.5;exitDx=0;exitDy=0;" parent="1" source="_17WigcSoXONT3Ec9sml-18" target="_17WigcSoXONT3Ec9sml-30" edge="1">
          <mxGeometry width="100" height="100" relative="1" as="geometry">
            <mxPoint x="1824" y="-639" as="sourcePoint" />
            <mxPoint x="2905" y="-429" as="targetPoint" />
          </mxGeometry>
        </mxCell>
        <mxCell id="_17WigcSoXONT3Ec9sml-32" value="" style="edgeStyle=entityRelationEdgeStyle;fontSize=12;html=1;endArrow=ERzeroToMany;startArrow=ERmandOne;rounded=0;entryX=1;entryY=0.168;entryDx=0;entryDy=0;entryPerimeter=0;exitX=0;exitY=0.5;exitDx=0;exitDy=0;endFill=0;strokeWidth=1;" parent="1" source="_17WigcSoXONT3Ec9sml-22" target="_17WigcSoXONT3Ec9sml-33" edge="1">
          <mxGeometry width="100" height="100" relative="1" as="geometry">
            <mxPoint x="1231" y="-509" as="sourcePoint" />
            <mxPoint x="1388.6" y="-617.5839999999998" as="targetPoint" />
          </mxGeometry>
        </mxCell>
        <mxCell id="_17WigcSoXONT3Ec9sml-33" value="Контактные данные" style="swimlane;childLayout=stackLayout;horizontal=1;startSize=30;horizontalStack=0;rounded=1;fontSize=14;fontStyle=0;strokeWidth=3;resizeParent=0;resizeLast=1;shadow=0;dashed=0;align=left;" parent="1" vertex="1">
          <mxGeometry x="1241" y="-539" width="160" height="120" as="geometry">
            <mxRectangle x="1241" y="-539" width="170" height="30" as="alternateBounds" />
          </mxGeometry>
        </mxCell>
        <mxCell id="_17WigcSoXONT3Ec9sml-34" value="Код кафедры&#xa;Контактные данные" style="align=left;strokeColor=none;fillColor=none;spacingLeft=4;fontSize=12;verticalAlign=top;resizable=0;rotatable=0;part=1;strokeWidth=3;" parent="_17WigcSoXONT3Ec9sml-33" vertex="1">
          <mxGeometry y="30" width="160" height="90" as="geometry" />
        </mxCell>
        <mxCell id="_17WigcSoXONT3Ec9sml-37" value="Специальность" style="swimlane;fontStyle=0;childLayout=stackLayout;horizontal=1;startSize=26;horizontalStack=0;resizeParent=1;resizeParentMax=0;resizeLast=0;collapsible=1;marginBottom=0;align=left;fontSize=14;strokeWidth=4;" parent="1" vertex="1">
          <mxGeometry x="1810" y="-430" width="160" height="126" as="geometry" />
        </mxCell>
        <mxCell id="_17WigcSoXONT3Ec9sml-38" value="Код Специальности (PK)" style="text;strokeColor=none;fillColor=none;spacingLeft=4;spacingRight=4;overflow=hidden;rotatable=0;points=[[0,0.5],[1,0.5]];portConstraint=eastwest;fontSize=12;fontStyle=0" parent="_17WigcSoXONT3Ec9sml-37" vertex="1">
          <mxGeometry y="26" width="160" height="30" as="geometry" />
        </mxCell>
        <mxCell id="_17WigcSoXONT3Ec9sml-39" value="" style="line;strokeWidth=1;rotatable=0;dashed=0;labelPosition=right;align=left;verticalAlign=middle;spacingTop=0;spacingLeft=6;points=[];portConstraint=eastwest;" parent="_17WigcSoXONT3Ec9sml-37" vertex="1">
          <mxGeometry y="56" width="160" height="10" as="geometry" />
        </mxCell>
        <mxCell id="_17WigcSoXONT3Ec9sml-40" value="Специальность" style="text;strokeColor=none;fillColor=none;spacingLeft=4;spacingRight=4;overflow=hidden;rotatable=0;points=[[0,0.5],[1,0.5]];portConstraint=eastwest;fontSize=12;" parent="_17WigcSoXONT3Ec9sml-37" vertex="1">
          <mxGeometry y="66" width="160" height="30" as="geometry" />
        </mxCell>
        <mxCell id="_17WigcSoXONT3Ec9sml-43" value="Кафедра" style="text;strokeColor=none;fillColor=none;spacingLeft=4;spacingRight=4;overflow=hidden;rotatable=0;points=[[0,0.5],[1,0.5]];portConstraint=eastwest;fontSize=12;" parent="_17WigcSoXONT3Ec9sml-37" vertex="1">
          <mxGeometry y="96" width="160" height="30" as="geometry" />
        </mxCell>
        <mxCell id="_17WigcSoXONT3Ec9sml-41" value="" style="edgeStyle=entityRelationEdgeStyle;fontSize=12;html=1;endArrow=ERmandOne;startArrow=ERmandOne;rounded=0;exitX=1.004;exitY=0.614;exitDx=0;exitDy=0;endFill=0;entryX=0;entryY=0.5;entryDx=0;entryDy=0;exitPerimeter=0;" parent="1" source="_17WigcSoXONT3Ec9sml-40" target="xMZ38Z4wrfJ14ddGWh8O-16" edge="1">
          <mxGeometry width="100" height="100" relative="1" as="geometry">
            <mxPoint x="2240" y="-225" as="sourcePoint" />
            <mxPoint x="2319" y="-208" as="targetPoint" />
          </mxGeometry>
        </mxCell>
        <mxCell id="9YhIO5kI3QUhicdMS5tW-4" value="Пока не буду делать, так как непонятно будем ли мы внедрять это" style="text;strokeColor=none;align=center;fillColor=none;html=1;verticalAlign=middle;whiteSpace=wrap;rounded=0;" parent="1" vertex="1">
          <mxGeometry x="2350" y="238" width="160" height="40" as="geometry" />
        </mxCell>
        <mxCell id="9YhIO5kI3QUhicdMS5tW-5" value="Вопрос, не получается в табл &quot;Назначение на пару&quot; сделать FK таблицу группа преподавателей" style="text;strokeColor=none;align=center;fillColor=none;html=1;verticalAlign=middle;whiteSpace=wrap;rounded=0;" parent="1" vertex="1">
          <mxGeometry x="2060" y="-159" width="180" height="30" as="geometry" />
        </mxCell>
        <mxCell id="9YhIO5kI3QUhicdMS5tW-7" style="edgeStyle=orthogonalEdgeStyle;rounded=0;orthogonalLoop=1;jettySize=auto;html=1;" parent="1" source="9YhIO5kI3QUhicdMS5tW-6" edge="1">
          <mxGeometry relative="1" as="geometry">
            <mxPoint x="2500" y="-260" as="targetPoint" />
            <Array as="points">
              <mxPoint x="2500" y="-390" />
              <mxPoint x="2500" y="-260" />
            </Array>
          </mxGeometry>
        </mxCell>
        <mxCell id="9YhIO5kI3QUhicdMS5tW-6" value="Вопрос, не получается в табл &quot;Назначение на пару&quot; сделать FK таблицу группа студентов" style="text;strokeColor=none;align=center;fillColor=none;html=1;verticalAlign=middle;whiteSpace=wrap;rounded=0;" parent="1" vertex="1">
          <mxGeometry x="2590" y="-419" width="180" height="30" as="geometry" />
        </mxCell>
        <mxCell id="oYeoJ9gqUt87JPOSU6Th-1" value="Развязка такая, что мы потов будет сортировать из добавочной сущности. Тип из Назначение на пару выбираем все id&amp;nbsp;" style="text;strokeColor=none;align=center;fillColor=none;html=1;verticalAlign=middle;whiteSpace=wrap;rounded=0;" vertex="1" parent="1">
          <mxGeometry x="2281" y="-693" width="240" height="90" as="geometry" />
        </mxCell>
      </root>
    </mxGraphModel>
  </diagram>
</mxfile>
